<svg height="512pt" viewBox="0 0 512 512" width="512pt" xmlns="http://www.w3.org/2000/svg"><path d="m512 256c0 141.386719-114.613281 256-256 256s-256-114.613281-256-256 114.613281-256 256-256 256 114.613281 256 256zm0 0" fill="#fe8205"/><path d="m364.011719 109.011719-15.925781 19.816406-59.085938-59.085937-141.011719 362.257812 78.273438 78.269531c9.757812 1.128907 19.675781 1.730469 29.738281 1.730469 141.054688 0 255.453125-114.082031 255.988281-255.011719zm0 0" fill="#fa5d0f"/><path d="m147.988281 110h216.023438v322h-216.023438zm0 0" fill="#fff"/><path d="m147.988281 110h108.011719v322h-108.011719zm0 0" fill="#fff"/><path d="m256 110h108.011719v322h-108.011719zm0 0" fill="#e9edf5"/><path d="m147.988281 109.011719h216.023438v161h-216.023438zm0 0" fill="#7f3de8"/><path d="m256 109.011719h108.011719v161h-108.011719zm0 0" fill="#5600c6"/><path d="m256 124.429688 20.425781 41.386718 45.675781 6.636719-33.050781 32.21875 7.800781 45.488281-40.851562-21.476562-40.851562 21.476562 7.800781-45.488281-33.050781-32.21875 45.675781-6.636719zm0 0" fill="#ffce00"/><path d="m322.101562 172.453125-45.675781-6.636719-20.425781-41.386718v104.253906l40.851562 21.476562-7.800781-45.488281zm0 0" fill="#ffb600"/><path d="m223.003906 69.742188h65.996094v39.269531h-65.996094zm0 0" fill="#fff"/><path d="m256 69.742188h32.996094v39.273437h-32.996094zm0 0" fill="#e9edf5"/><path d="m177.253906 307.230469h157.492188v32.050781h-157.492188zm0 0" fill="#7f3de8"/><path d="m256 307.230469h78.746094v32.050781h-78.746094zm0 0" fill="#5600c6"/><path d="m189.898438 362.203125h132.203124v32.054687h-132.203124zm0 0" fill="#7f3de8"/><path d="m256 362.203125h66.101562v32.054687h-66.101562zm0 0" fill="#5600c6"/></svg>