<?xml version="1.0" encoding="iso-8859-1"?>
<!-- Generator: Adobe Illustrator 19.0.0, SVG Export Plug-In . SVG Version: 6.00 Build 0)  -->
<svg version="1.1" id="Layer_1" xmlns="http://www.w3.org/2000/svg" xmlns:xlink="http://www.w3.org/1999/xlink" x="0px" y="0px"
	 viewBox="0 0 512 512" style="enable-background:new 0 0 512 512;" xml:space="preserve">
<g>
	<path style="fill:#D55400;" d="M320.479,299.406c-0.053,0.28-0.095,0.564-0.129,0.85
		C320.384,299.969,320.427,299.685,320.479,299.406z"/>
	<path style="fill:#D55400;" d="M320.81,298.023c-0.097,0.323-0.181,0.651-0.252,0.983
		C320.629,298.674,320.713,298.346,320.81,298.023z"/>
	<path style="fill:#D55400;" d="M164.807,301.89v-0.014c0-7.441,6.032-13.474,13.474-13.474c6.036,0,11.144,3.971,12.859,9.441
		l24.471-7.674v11.706h0.001l40.387,50.452l40.387-50.452h0.001V290.17l24.471,7.674c0,0,0,0,0,0.001
		c1.714-5.471,6.822-9.442,12.859-9.442c7.44,0,13.474,6.033,13.474,13.474v0.014c6.181,0.059,12.073,0.595,17.684,1.561v-116.64
		c-4.413,6.292-11.716,10.409-19.985,10.409c-1.672,0-3.303-0.17-4.88-0.488v-47.816c1.577-0.319,3.209-0.488,4.88-0.488
		c8.27,0,15.572,4.118,19.985,10.409V116.96c0-60.13-48.744-108.876-108.876-108.876S147.121,56.83,147.121,116.961v186.491
		C152.732,302.486,158.625,301.95,164.807,301.89z"/>
	<path style="fill:#D55400;" d="M320.306,300.639c-0.037,0.409-0.063,0.82-0.063,1.237
		C320.244,301.459,320.269,301.047,320.306,300.639z"/>
	<path style="fill:#D55400;" d="M191.648,300.257c-0.033-0.288-0.077-0.571-0.129-0.853
		C191.57,299.685,191.615,299.969,191.648,300.257z"/>
	<path style="fill:#D55400;" d="M191.755,301.876c0-0.418-0.025-0.831-0.064-1.238C191.73,301.046,191.755,301.459,191.755,301.876z
		"/>
	<path style="fill:#D55400;" d="M191.441,299.006c-0.071-0.331-0.156-0.658-0.252-0.98
		C191.286,298.348,191.37,298.676,191.441,299.006z"/>
</g>
<rect x="215.611" y="256" style="fill:#F9BF8C;" width="84.841" height="96.331"/>
<rect x="215.611" y="256" style="fill:#EFB27B;" width="31.259" height="96.331"/>
<path style="fill:#FFD3A4;" d="M171.989,153.048v45.275c0,45.204,36.644,81.848,81.851,81.848h4.32
	c45.205,0,81.851-36.644,81.851-81.848v-74.585L303.71,94.842C303.709,94.842,242.911,151.763,171.989,153.048z"/>
<path style="fill:#68C3EA;" d="M178.281,424.139c-7.441,0-13.474-6.033-13.474-13.474V301.876c0-7.441,6.033-13.474,13.474-13.474
	s13.474,6.033,13.474,13.474v108.789C191.755,418.107,185.723,424.139,178.281,424.139z"/>
<path style="fill:#414143;" d="M445.376,403.745c-5.707-57.302-38.775-101.285-98.185-101.855v108.775
	c0,7.441-6.034,13.474-13.474,13.474c-7.442,0-13.474-6.033-13.474-13.474V301.876c0-1.406,0.216-2.758,0.614-4.032l-24.471-7.674
	v11.706h-0.001l-40.385,50.452l-40.387-50.452h-0.001V290.17l-24.471,7.674c0.398,1.274,0.614,2.628,0.614,4.032v108.789
	c0,7.441-6.032,13.474-13.474,13.474s-13.474-6.033-13.474-13.474V301.89c-59.41,0.569-92.478,44.553-98.185,101.855
	c-0.594,5.966-0.891,12.078-0.891,18.299v68.937c0,0.446,0.023,0.887,0.067,1.323c0.663,6.522,6.171,11.612,12.868,11.612h354.667
	c6.698,0,12.205-5.091,12.868-11.612c0.044-0.434,0.067-0.876,0.067-1.323v-61.709"/>
<g>
	<path style="fill:#BDBEC0;" d="M215.613,301.876L215.613,301.876l-0.001-11.706l-24.471,7.674c0.398,1.274,0.614,2.628,0.614,4.032
		v18.291l37.187,50.486l27.057-18.325L215.613,301.876z"/>
	<path style="fill:#BDBEC0;" d="M320.244,301.876c0-1.406,0.216-2.758,0.614-4.032l-24.471-7.674v11.706h-0.001l-40.387,50.452
		l27.057,18.325l37.187-50.484V301.876z"/>
</g>
<path style="fill:#D6F2FC;" d="M349.193,411.743h-2.057c-0.552,6.936-6.342,12.396-13.419,12.396c-7.077,0-12.87-5.46-13.42-12.396
	H191.701c-0.551,6.936-6.341,12.396-13.419,12.396c-7.077,0-12.868-5.46-13.419-12.396h-2.057c-7.144,0-12.935,5.792-12.935,12.935
	v79.238h212.257v-79.238C362.128,417.534,356.337,411.743,349.193,411.743z"/>
<path style="fill:#D33700;" d="M178.38,116.961c0-54.824,40.522-100.175,93.249-107.756c-5.105-0.734-10.322-1.121-15.629-1.121
	c-60.133,0-108.878,48.746-108.878,108.877v186.491c5.61-0.965,11.503-1.503,17.686-1.561v-0.014
	c0-7.441,6.032-13.474,13.474-13.474c0.033,0,0.066,0.004,0.099,0.004L178.38,116.961L178.38,116.961z"/>
<path style="fill:#F9BE8F;" d="M203.248,198.323v-38.71v-6.564v-4.008c-10.074,2.344-20.549,3.814-31.259,4.008v45.275
	c0,45.204,36.644,81.848,81.851,81.848h4.32c4.59,0,9.086-0.396,13.469-1.122C232.836,272.622,203.248,238.937,203.248,198.323z"/>
<path style="fill:#343438;" d="M97.056,492.304c-0.044-0.434-0.067-0.876-0.067-1.323v-68.937c0-6.221,0.298-12.332,0.891-18.299
	c4.612-46.315,27.104-83.923,66.926-96.945v-4.91c-59.41,0.569-92.478,44.553-98.185,101.855
	c-0.594,5.966-0.891,12.078-0.891,18.299v68.937c0,0.446,0.023,0.887,0.067,1.323c0.663,6.522,6.171,11.612,12.868,11.612h31.259
	C103.227,503.916,97.719,498.825,97.056,492.304z"/>
<path style="fill:#AADAE2;" d="M181.173,423.816c-0.932,0.205-1.897,0.323-2.892,0.323c-7.077,0-12.868-5.46-13.419-12.396h-2.057
	c-7.144,0-12.935,5.792-12.935,12.935v79.237h31.259v-79.238C181.13,424.388,181.156,424.102,181.173,423.816z"/>
<polyline style="fill:#E8F4F7;" points="272.734,442.463 180.437,442.463 180.437,503.916 329.259,503.916 329.259,442.463 
	299.681,442.463 "/>
<path style="fill:#68C3EA;" d="M333.718,424.139c-7.442,0-13.474-6.033-13.474-13.474V301.876c0-7.441,6.032-13.474,13.474-13.474
	c7.441,0,13.474,6.033,13.474,13.474v108.789C347.192,418.107,341.159,424.139,333.718,424.139z"/>
<path style="fill:#F9BF8C;" d="M344.89,148.427c-1.672,0-3.303,0.169-4.88,0.488v47.816c1.577,0.318,3.209,0.488,4.88,0.488
	c13.474,0,24.398-10.922,24.398-24.397C369.288,159.349,358.364,148.427,344.89,148.427z"/>
<path style="fill:#010101;" d="M446.268,421.187c-4.466,0-8.084,3.618-8.084,8.084v61.709c0,0.17-0.009,0.337-0.025,0.504
	c-0.251,2.478-2.326,4.346-4.826,4.346h-63.122v-71.154c0-9.475-6.305-17.499-14.936-20.114v-94.198c0.004,0,0.009,0,0.013,0.001
	c46.08,4.041,76.514,38.668,82.044,94.18c0.442,4.443,4.416,7.69,8.845,7.243c4.443-0.442,7.686-4.403,7.243-8.845
	c-3.104-31.173-13.821-57.733-30.989-76.81c-13.231-14.701-30.052-24.587-49.472-29.248V189.14c2.8-4.798,4.413-10.37,4.413-16.315
	c0-5.945-1.613-11.516-4.413-16.315v-39.548C372.96,52.469,320.491,0,255.999,0c-64.493,0-116.962,52.469-116.962,116.961v179.926
	c-19.418,4.662-36.239,14.547-49.469,29.248c-17.169,19.077-27.885,45.637-30.989,76.811c-0.618,6.21-0.931,12.636-0.931,19.099
	v68.936c0,0.717,0.036,1.437,0.108,2.14C58.85,503.883,67.839,512,78.666,512h71.206h30.566h148.821h32.869h71.206
	c10.827,0,19.817-8.115,20.911-18.879c0.071-0.703,0.108-1.423,0.108-2.14v-61.709C454.353,424.806,450.733,421.187,446.268,421.187
	z M338.915,412.012c-0.025,0.096-0.057,0.188-0.087,0.28c-0.074,0.234-0.157,0.465-0.263,0.683
	c-0.037,0.077-0.082,0.149-0.122,0.224c-0.121,0.223-0.248,0.441-0.398,0.645c-0.042,0.057-0.092,0.109-0.136,0.165
	c-0.164,0.205-0.335,0.403-0.526,0.583c-0.049,0.045-0.102,0.082-0.152,0.125c-0.199,0.174-0.405,0.341-0.628,0.483
	c-0.067,0.042-0.14,0.074-0.209,0.113c-0.217,0.126-0.437,0.248-0.67,0.344c-0.122,0.05-0.252,0.078-0.378,0.117
	c-0.194,0.063-0.385,0.134-0.586,0.174c-0.337,0.067-0.686,0.106-1.042,0.106c-0.358,0-0.706-0.039-1.043-0.106
	c-0.195-0.039-0.378-0.108-0.566-0.167c-0.134-0.042-0.272-0.072-0.401-0.125c-0.223-0.092-0.433-0.209-0.64-0.329
	c-0.08-0.045-0.164-0.082-0.24-0.13c-0.211-0.136-0.406-0.295-0.596-0.458c-0.061-0.053-0.127-0.098-0.186-0.154
	c-0.18-0.169-0.341-0.357-0.496-0.549c-0.055-0.068-0.115-0.132-0.167-0.202c-0.14-0.191-0.26-0.397-0.374-0.606
	c-0.049-0.088-0.1-0.174-0.143-0.264c-0.098-0.207-0.177-0.425-0.248-0.646c-0.035-0.106-0.071-0.21-0.099-0.319
	c-0.057-0.223-0.094-0.455-0.122-0.689c-0.026-0.215-0.066-0.425-0.066-0.647v-90.496v-18.293c0-0.337,0.04-0.665,0.099-0.986
	c0.016-0.087,0.04-0.174,0.06-0.26c0.056-0.236,0.128-0.467,0.215-0.69c0.035-0.089,0.069-0.179,0.107-0.266
	c0.116-0.258,0.249-0.507,0.403-0.741c0.018-0.028,0.033-0.059,0.053-0.087c0.38-0.557,0.862-1.038,1.419-1.419
	c0.028-0.018,0.057-0.035,0.085-0.053c0.238-0.156,0.49-0.291,0.752-0.409c0.071-0.031,0.143-0.063,0.217-0.091
	c0.233-0.093,0.474-0.165,0.722-0.224c0.085-0.021,0.169-0.046,0.255-0.063c0.326-0.061,0.66-0.101,1.002-0.101
	c2.972,0,5.389,2.418,5.389,5.403v108.775c0,0.215-0.039,0.419-0.064,0.627C339.015,411.538,338.976,411.779,338.915,412.012z
	 M199.839,403.659v-58.884l22.594,30.674c1.581,2.146,4.029,3.291,6.516,3.291c1.562,0,3.14-0.453,4.527-1.392l22.524-15.254
	l22.524,15.254c1.387,0.939,2.964,1.392,4.527,1.392c2.487,0,4.935-1.146,6.516-3.291l22.594-30.673v58.883H199.839z
	 M183.481,412.008c-0.026,0.101-0.06,0.198-0.093,0.296c-0.073,0.227-0.154,0.453-0.255,0.666c-0.04,0.084-0.088,0.163-0.133,0.245
	c-0.117,0.216-0.24,0.428-0.385,0.624c-0.047,0.065-0.102,0.123-0.153,0.185c-0.16,0.197-0.324,0.39-0.51,0.564
	c-0.054,0.051-0.115,0.093-0.171,0.141c-0.194,0.168-0.393,0.33-0.61,0.469c-0.072,0.046-0.151,0.08-0.225,0.123
	c-0.212,0.123-0.427,0.243-0.655,0.336c-0.125,0.051-0.259,0.08-0.388,0.121c-0.191,0.061-0.378,0.132-0.577,0.17
	c-0.338,0.067-0.686,0.106-1.043,0.106s-0.705-0.039-1.043-0.106c-0.198-0.04-0.386-0.109-0.577-0.17
	c-0.129-0.041-0.264-0.07-0.389-0.121c-0.229-0.094-0.443-0.213-0.655-0.336c-0.074-0.042-0.153-0.077-0.224-0.122
	c-0.217-0.14-0.417-0.302-0.612-0.471c-0.055-0.047-0.115-0.089-0.169-0.14c-0.185-0.174-0.351-0.368-0.511-0.566
	c-0.05-0.061-0.105-0.12-0.151-0.183c-0.144-0.197-0.268-0.41-0.386-0.626c-0.044-0.081-0.092-0.16-0.132-0.243
	c-0.102-0.215-0.183-0.44-0.257-0.668c-0.031-0.098-0.066-0.194-0.092-0.294c-0.059-0.232-0.098-0.471-0.126-0.714
	c-0.025-0.209-0.064-0.415-0.064-0.631V301.89v-0.014c0-2.972,2.418-5.389,5.389-5.389c0.344,0,0.677,0.04,1.002,0.101
	c0.087,0.016,0.17,0.042,0.255,0.063c0.247,0.059,0.489,0.132,0.722,0.224c0.073,0.029,0.144,0.059,0.217,0.091
	c0.262,0.117,0.514,0.252,0.752,0.409c0.028,0.018,0.057,0.033,0.085,0.053c0.557,0.38,1.039,0.862,1.42,1.421
	c0.017,0.026,0.032,0.055,0.05,0.082c0.156,0.237,0.29,0.488,0.407,0.75c0.037,0.083,0.07,0.169,0.103,0.255
	c0.087,0.223,0.157,0.454,0.215,0.69c0.022,0.089,0.045,0.178,0.063,0.268c0,0.001,0,0.003,0.001,0.004
	c0.059,0.319,0.099,0.645,0.099,0.98v18.291v90.498c0,0.217-0.039,0.423-0.064,0.633
	C183.579,411.539,183.54,411.777,183.481,412.008z M357.368,162.334c0.235,0.278,0.455,0.571,0.673,0.867
	c1.982,2.701,3.163,6.024,3.163,9.623c0,3.599-1.181,6.923-3.164,9.625c-0.217,0.295-0.438,0.587-0.672,0.866
	c-0.126,0.15-0.262,0.291-0.393,0.437c-0.202,0.223-0.404,0.444-0.618,0.654c-0.142,0.14-0.29,0.275-0.438,0.41
	c-0.222,0.204-0.446,0.404-0.678,0.594c-0.144,0.119-0.291,0.234-0.44,0.348c-0.257,0.196-0.517,0.385-0.785,0.566
	c-0.135,0.092-0.269,0.182-0.406,0.269c-0.304,0.192-0.614,0.373-0.929,0.544c-0.112,0.061-0.223,0.125-0.337,0.184
	c-0.364,0.188-0.737,0.359-1.115,0.52c-0.075,0.032-0.15,0.069-0.226,0.099c-0.451,0.183-0.909,0.347-1.375,0.489
	c-0.012,0.003-0.023,0.009-0.035,0.012c-0.493,0.149-0.993,0.275-1.5,0.377v-31.987c1,0.202,1.976,0.498,2.916,0.88
	c0.069,0.028,0.135,0.06,0.204,0.089c0.385,0.163,0.764,0.337,1.135,0.529c0.111,0.057,0.218,0.12,0.328,0.179
	c0.318,0.174,0.632,0.356,0.938,0.55c0.136,0.086,0.268,0.176,0.401,0.266c0.268,0.181,0.531,0.371,0.789,0.568
	c0.148,0.113,0.294,0.227,0.438,0.346c0.233,0.191,0.458,0.391,0.68,0.596c0.147,0.135,0.294,0.268,0.435,0.409
	c0.213,0.211,0.417,0.433,0.619,0.656C357.107,162.044,357.243,162.184,357.368,162.334z M331.925,148.915v47.816v1.591
	c0,30.432-18.528,56.614-44.893,67.873c-0.092,0.039-0.182,0.081-0.274,0.119c-0.929,0.392-1.871,0.759-2.819,1.113
	c-0.334,0.125-0.67,0.246-1.007,0.365c-0.696,0.249-1.398,0.485-2.104,0.714c-0.597,0.193-1.196,0.376-1.798,0.553
	c-0.495,0.147-0.991,0.288-1.49,0.424c-0.527,0.143-1.054,0.287-1.583,0.418c-0.76,0.189-1.524,0.365-2.293,0.53
	c-0.539,0.115-1.08,0.221-1.621,0.324c-0.518,0.099-1.04,0.192-1.562,0.28c-0.669,0.113-1.341,0.219-2.013,0.314
	c-0.688,0.097-1.378,0.186-2.072,0.264c-0.388,0.044-0.776,0.087-1.164,0.125c-0.985,0.094-1.975,0.171-2.97,0.226
	c-0.257,0.014-0.514,0.024-0.771,0.036c-1.106,0.05-2.215,0.084-3.332,0.084h-4.32c-1.118,0-2.227-0.036-3.332-0.084
	c-0.257-0.012-0.514-0.022-0.771-0.036c-0.996-0.055-1.985-0.133-2.97-0.226c-0.389-0.038-0.776-0.081-1.164-0.125
	c-0.694-0.078-1.384-0.167-2.072-0.264c-0.673-0.095-1.344-0.201-2.014-0.314c-0.523-0.088-1.043-0.18-1.562-0.28
	c-0.541-0.103-1.082-0.209-1.621-0.324c-0.769-0.165-1.533-0.342-2.292-0.53c-0.53-0.132-1.057-0.275-1.586-0.418
	c-0.498-0.136-0.994-0.277-1.488-0.424c-0.603-0.178-1.204-0.361-1.802-0.554c-0.705-0.229-1.406-0.463-2.101-0.712
	c-0.337-0.12-0.673-0.241-1.008-0.366c-0.947-0.355-1.89-0.721-2.818-1.113c-0.092-0.039-0.182-0.08-0.274-0.12
	c-26.366-11.258-44.893-37.441-44.893-67.873V160.77c58.42-4.209,107.976-41.968,123.89-55.396l27.963,22.259v21.283H331.925z
	 M244.216,350.545l-13.373,9.056l-31.003-42.091v-13.922l7.69-2.411v0.7c0,1.836,0.625,3.617,1.773,5.05L244.216,350.545z
	 M302.698,306.929c1.148-1.434,1.773-3.215,1.773-5.053v-0.698l7.689,2.411v13.924l-31.003,42.09l-13.373-9.058L302.698,306.929z
	 M234.314,286.095c0.183,0.041,0.364,0.087,0.548,0.127c0.958,0.207,1.924,0.388,2.893,0.564c0.406,0.074,0.812,0.15,1.219,0.219
	c0.858,0.143,1.721,0.273,2.588,0.391c0.566,0.078,1.132,0.149,1.699,0.217c0.755,0.088,1.508,0.175,2.268,0.245
	c0.773,0.072,1.547,0.125,2.322,0.177c0.591,0.039,1.179,0.087,1.773,0.114c1.404,0.067,2.81,0.107,4.217,0.107h4.32
	c1.407,0,2.813-0.041,4.217-0.107c0.594-0.028,1.181-0.075,1.773-0.114c0.775-0.052,1.549-0.105,2.322-0.177
	c0.76-0.07,1.513-0.155,2.268-0.245c0.567-0.068,1.133-0.138,1.699-0.217c0.867-0.119,1.729-0.248,2.588-0.391
	c0.407-0.068,0.814-0.144,1.22-0.219c0.968-0.176,1.934-0.357,2.892-0.564c0.184-0.04,0.366-0.086,0.55-0.127
	c3.222-0.716,6.376-1.607,9.458-2.66c0.385-0.13,0.774-0.247,1.157-0.383v15.145c0,0.001,0,0.001,0,0.002v0.84l-32.305,40.352
	l-32.303-40.352v-0.825c0-0.007,0.001-0.012,0.001-0.018v-15.145c0.383,0.136,0.773,0.252,1.158,0.384
	C227.938,284.488,231.093,285.379,234.314,286.095z M354.583,294.099c-0.261-0.018-0.52-0.042-0.78-0.058
	c-0.043-0.11-0.096-0.215-0.141-0.323c-0.077-0.186-0.158-0.368-0.24-0.552c-0.184-0.416-0.382-0.825-0.592-1.226
	c-0.091-0.172-0.178-0.346-0.273-0.516c-0.283-0.508-0.583-1.006-0.904-1.488c-0.026-0.039-0.049-0.081-0.075-0.121
	c-0.35-0.517-0.729-1.014-1.122-1.499c-0.116-0.143-0.24-0.281-0.36-0.421c-0.294-0.344-0.597-0.679-0.912-1.004
	c-0.141-0.146-0.281-0.29-0.427-0.432c-0.355-0.346-0.722-0.679-1.101-1c-0.101-0.086-0.197-0.178-0.3-0.262
	c-0.481-0.395-0.98-0.766-1.494-1.118c-0.133-0.091-0.272-0.174-0.406-0.261c-0.396-0.258-0.798-0.504-1.21-0.736
	c-0.18-0.101-0.361-0.199-0.544-0.295c-0.413-0.217-0.833-0.418-1.261-0.609c-0.158-0.07-0.313-0.147-0.473-0.212
	c-0.583-0.243-1.177-0.462-1.784-0.654c-0.109-0.034-0.222-0.059-0.332-0.093c-0.506-0.151-1.019-0.283-1.539-0.397
	c-0.203-0.044-0.406-0.082-0.61-0.12c-0.46-0.086-0.926-0.157-1.396-0.213c-0.197-0.024-0.393-0.052-0.593-0.07
	c-0.658-0.06-1.32-0.101-1.994-0.101c-0.698,0-1.388,0.04-2.071,0.105c-0.065,0.006-0.129,0.01-0.193,0.016
	c-0.679,0.07-1.347,0.176-2.008,0.307c-0.039,0.008-0.079,0.015-0.119,0.024c-4.867,0.999-9.186,3.627-12.28,7.406l-12.577-3.944
	v-8.851c24.275-14.642,41.082-40.426,43.338-70.215c3.12-0.279,6.114-1.002,8.92-2.105c0.022-0.009,0.043-0.014,0.065-0.023v91.228
	c-0.166-0.015-0.334-0.024-0.5-0.038C355.723,294.18,355.153,294.139,354.583,294.099z M155.206,294.265V116.961
	c0-55.577,45.217-100.793,100.794-100.793c55.576,0,100.792,45.216,100.792,100.793v25.647c-0.022-0.009-0.045-0.015-0.067-0.024
	c-2.72-1.068-5.613-1.785-8.63-2.083v-16.764c0-2.463-1.122-4.791-3.049-6.325l-36.301-28.896c-3.133-2.494-7.627-2.313-10.556,0.42
	c-0.587,0.549-59.465,54.816-126.345,56.028c-4.408,0.08-7.938,3.676-7.938,8.083v45.275c0,32.661,17.506,61.305,43.625,77.06v8.851
	l-12.578,3.944c-3.094-3.778-7.412-6.406-12.277-7.405c-0.041-0.009-0.082-0.016-0.123-0.025c-0.66-0.132-1.327-0.236-2.005-0.307
	c-0.065-0.006-0.129-0.01-0.195-0.016c-0.683-0.065-1.372-0.105-2.071-0.105c-0.673,0-1.337,0.04-1.993,0.101
	c-0.199,0.018-0.396,0.045-0.594,0.07c-0.47,0.056-0.936,0.127-1.396,0.213c-0.204,0.039-0.407,0.075-0.61,0.12
	c-0.521,0.113-1.033,0.246-1.538,0.397c-0.111,0.033-0.224,0.058-0.334,0.093c-0.607,0.191-1.2,0.412-1.782,0.653
	c-0.163,0.068-0.319,0.144-0.48,0.216c-0.425,0.189-0.843,0.389-1.253,0.605c-0.185,0.097-0.37,0.197-0.552,0.3
	c-0.406,0.229-0.803,0.471-1.192,0.725c-0.142,0.093-0.287,0.179-0.427,0.274c-0.509,0.349-1.004,0.717-1.48,1.107
	c-0.117,0.096-0.226,0.199-0.341,0.297c-0.361,0.308-0.712,0.626-1.053,0.957c-0.156,0.152-0.308,0.308-0.46,0.466
	c-0.298,0.308-0.585,0.625-0.864,0.951c-0.135,0.157-0.273,0.311-0.403,0.472c-0.384,0.473-0.752,0.958-1.095,1.464
	c-0.056,0.083-0.105,0.171-0.16,0.255c-0.288,0.437-0.561,0.884-0.816,1.342c-0.109,0.195-0.21,0.395-0.313,0.593
	c-0.192,0.371-0.374,0.746-0.544,1.129c-0.094,0.209-0.188,0.418-0.275,0.631c-0.04,0.098-0.088,0.193-0.127,0.292
	c-0.259,0.016-0.515,0.04-0.773,0.058c-0.571,0.04-1.143,0.081-1.711,0.128C155.546,294.242,155.375,294.25,155.206,294.265z
	 M73.841,491.485c-0.017-0.166-0.025-0.334-0.025-0.504v-68.937c0-5.931,0.287-11.818,0.852-17.497
	c5.53-55.514,35.966-90.141,82.049-94.18c0.002,0,0.005,0,0.008,0v94.198c-8.632,2.616-14.936,10.639-14.936,20.113v71.153H78.666
	C76.167,495.832,74.092,493.964,73.841,491.485z M337.343,495.832v-53.369c0-4.466-3.618-8.084-8.084-8.084h-29.576
	c-4.466,0-8.084,3.618-8.084,8.084c0,4.466,3.618,8.084,8.084,8.084h21.492v45.284H188.521v-45.284h84.213
	c4.466,0,8.084-3.618,8.084-8.084c0-4.466-3.618-8.084-8.084-8.084h-92.297c-4.466,0-8.084,3.618-8.084,8.084v53.369h-14.397
	v-71.154c0-1.383,0.583-2.631,1.513-3.515c2.494,4.452,6.523,7.916,11.364,9.706c0.156,0.058,0.313,0.117,0.471,0.172
	c0.336,0.115,0.675,0.226,1.019,0.326c0.361,0.106,0.728,0.196,1.095,0.282c0.312,0.072,0.624,0.14,0.94,0.198
	c0.467,0.087,0.938,0.16,1.413,0.217c0.195,0.023,0.389,0.044,0.586,0.061c0.635,0.057,1.275,0.097,1.924,0.097
	c0.653,0,1.298-0.04,1.937-0.098c0.218-0.019,0.433-0.046,0.65-0.072c0.416-0.051,0.828-0.114,1.237-0.19
	c0.253-0.045,0.507-0.086,0.757-0.141c0.419-0.093,0.832-0.204,1.242-0.32c0.501-0.141,0.993-0.303,1.479-0.479
	c0.14-0.052,0.281-0.1,0.42-0.154c5.16-1.989,9.356-5.9,11.724-10.86c0.013-0.028,0.029-0.054,0.042-0.082h116.458
	c0.018,0.038,0.039,0.073,0.057,0.111c2.37,4.945,6.559,8.845,11.708,10.831c0.14,0.055,0.284,0.105,0.425,0.156
	c0.483,0.175,0.971,0.336,1.47,0.476c0.413,0.117,0.827,0.229,1.249,0.322c0.25,0.054,0.503,0.096,0.756,0.141
	c0.41,0.074,0.821,0.138,1.237,0.19c0.217,0.026,0.431,0.053,0.65,0.072c0.64,0.058,1.284,0.098,1.937,0.098
	c0.648,0,1.288-0.04,1.923-0.097c0.197-0.017,0.392-0.039,0.587-0.061c0.474-0.056,0.943-0.128,1.409-0.216
	c0.322-0.059,0.639-0.128,0.956-0.203c0.363-0.085,0.724-0.175,1.08-0.278c0.347-0.1,0.689-0.211,1.028-0.328
	c0.152-0.053,0.302-0.11,0.453-0.166c4.846-1.789,8.881-5.256,11.377-9.712c0.931,0.885,1.513,2.133,1.513,3.515v71.152H337.343z"/>
<g>
</g>
<g>
</g>
<g>
</g>
<g>
</g>
<g>
</g>
<g>
</g>
<g>
</g>
<g>
</g>
<g>
</g>
<g>
</g>
<g>
</g>
<g>
</g>
<g>
</g>
<g>
</g>
<g>
</g>
</svg>
