<svg height="512pt" viewBox="-34 0 512 512.00015" width="512pt" xmlns="http://www.w3.org/2000/svg"><g fill-rule="evenodd"><path d="m164.085938 330.738281c-4.394532 4.136719-6.890626 10.285157-6.578126 15.613281l.140626 13.769532c0 10.601562 4.765624 18.363281 12.480468 20.855468 4.933594 1.617188 11.085938 1.050782 17.921875-2.320312l17.953125-9.664062v-30.320313l-18.746094-9.09375c-9.585937-5.953125-17.8125-3.882813-23.171874 1.160156zm0 0" fill="#e8755d"/><path d="m206 338.671875v30.320313h33.179688v-30.320313zm0 0" fill="#e8755d"/><path d="m257.925781 329.578125-18.746093 9.09375v30.320313l17.953124 9.664062c7.203126 3.539062 13.613282 3.992188 18.6875 2.066406 7.261719-2.75 11.714844-10.34375 11.714844-20.601562l.140625-13.769532c.285157-5.015624-1.898437-10.742187-5.8125-14.847656-5.332031-5.582031-13.871093-8.160156-23.9375-1.925781zm0 0" fill="#e8755d"/><path d="m239.179688 368.992188h-33.175782l-17.953125 9.664062c-6.835937 3.371094-12.988281 3.9375-17.921875 2.320312l25.664063 120.882813 26.96875-.027344 27.339843.027344 25.722657-121.136719c-5.078125 1.925782-11.488281 1.472656-18.691407-2.066406zm0 0" fill="#f9f9f9"/><path d="m287.53125 360.121094c0 10.257812-4.449219 17.855468-11.710938 20.601562l-25.722656 121.136719 92.621094.058594 15.769531-.03125v-154.089844c-15.203125-10.285156-33.378906-21.28125-55.273437-34.285156-6.125 7.28125-13.355469 13.230469-21.351563 17.992187 3.914063 4.105469 6.097657 9.832032 5.8125 14.847656zm0 0" fill="#adaaaf"/><path d="m358.488281 347.796875v154.089844l32.382813-.027344c29.125 0 48.667968-9.011719 43.109375-40.519531-9.984375-56.730469-28.160157-81.582032-75.492188-113.542969zm0 0" fill="#f9f9f9"/><path d="m87.460938 347.796875c-46.878907 32.105469-64.207032 57.097656-75.890626 113.542969-7.34375 35.335937 13.273438 40.519531 43.984376 40.519531l31.90625.027344zm0 0" fill="#f9f9f9"/><path d="m87.460938 347.796875v154.089844h16.023437l92.308594-.027344-25.664063-120.878906c-7.714844-2.496094-12.480468-10.257813-12.480468-20.855469l-.140626-13.773438c-.3125-5.328124 2.183594-11.476562 6.578126-15.609374-8.421876-4.765626-15.851563-10.542969-21.75-17.230469-21.835938 12.976562-39.875 24-54.875 34.285156zm0 0" fill="#adaaaf"/><path d="m260.140625 88.835938c-30.855469 50.664062-80.425781 53.242187-132.464844 53.328124v44.542969c0 33.011719 14.914063 62.707031 36.410157 82.457031 6.328124 5.808594 13.1875 10.738282 20.449218 14.648438 12.050782 6.546875 25.097656 10.230469 38.199219 10.34375 19.195313.140625 38.453125-7.765625 54.5625-21.167969 1.53125-1.273437 3.0625-2.632812 4.566406-4.023437 21.210938-19.777344 35.902344-49.417969 35.902344-82.257813v-46.472656c-28.078125-5.042969-40.042969-12.976563-57.625-51.398437zm0 0" fill="#ffddcf"/><path d="m317.765625 186.707031c0 32.839844-14.691406 62.480469-35.902344 82.257813v62.539062c7.996094-4.761718 15.226563-10.710937 21.351563-17.992187 21.894531 13.003906 40.070312 24 55.273437 34.285156 44.410157.90625 59.835938-28.136719 59.835938-46.019531-58.191407 5.46875-43.050781-81.4375-49.398438-157.6875-14.804687-177.722656-279.535156-179.140625-291.476562-1.445313-5.132813 76.363281 8.082031 164.605469-50.109375 159.136719 0 17.90625 15.484375 47.035156 60.121094 46.015625 15.003906-10.285156 33.039062-21.308594 54.875-34.285156 5.898437 6.6875 13.328124 12.464843 21.75 17.226562v-61.574219c-21.496094-19.75-36.410157-49.445312-36.410157-82.457031v-44.542969c52.039063-.085937 101.609375-2.664062 132.464844-53.328124 17.582031 38.421874 29.546875 46.355468 57.625 51.402343zm0 0" fill="#ec8e7b"/><path d="m277.296875 272.988281c-16.109375 13.402344-35.367187 21.3125-54.5625 21.171875-13.101563-.117187-26.148437-3.800781-38.203125-10.34375-7.257812-3.910156-14.121094-8.84375-20.445312-14.652344v61.574219c5.359374-5.042969 13.585937-7.113281 23.171874-1.160156l18.746094 9.09375h33.179688l18.746094-9.09375c10.066406-6.234375 18.601562-3.65625 23.933593 1.925781v-62.535156c-1.503906 1.386719-3.039062 2.746094-4.566406 4.019531zm0 0" fill="#ffcbbe"/></g><path d="m443.910156 459.589844c-8.945312-50.851563-24.460937-77.699219-58.898437-104.964844 12.566406-3.65625 21.1875-9.785156 26.808593-15.292969 10.386719-10.179687 16.589844-24.21875 16.589844-37.554687 0-2.835938-1.195312-5.542969-3.296875-7.457032-2.101562-1.910156-4.910156-2.847656-7.730469-2.582031-8.664062.8125-15.191406-.851562-19.9375-5.089843-14.820312-13.230469-15.558593-51.027344-16.339843-91.046876-.335938-17.179687-.683594-34.941406-2.132813-52.347656-3.710937-44.5625-22.605468-81.863281-54.640625-107.871094-28.484375-23.125-65.597656-35.675781-104.449219-35.37890575-38.105468.30468775-74.0625 13.04687475-101.242187 35.87109375-30.59375 25.691406-48.316406 62.375-51.253906 106.09375-1.054688 15.710938-1.347657 31.859375-1.625 47.472656-.734375 40.753906-1.492188 82.894532-17.292969 97.019532-4.886719 4.371093-11.488281 6.097656-20.1875 5.277343-2.824219-.257812-5.632812.671875-7.730469 2.585938-2.097656 1.910156-3.296875 4.617187-3.296875 7.457031 0 13.355469 6.222656 27.410156 16.640625 37.597656 5.6875 5.558594 14.429688 11.734375 27.195313 15.367188-7.269532 5.875-13.777344 11.808594-19.519532 17.976562-20.308593 21.8125-31.488281 46.085938-39.871093 86.5625-3.472657 16.703125-1.6328128 29.15625 5.617187 38.074219 10.425782 12.816406 29.347656 14.582031 48.234375 14.582031l31.71875.019532c.066407.003906.128907.011718.191407.011718s.125-.007812.183593-.011718l15.84375.011718 91.914063-.042968c.125.003906.25.015624.378906.015624.109375 0 .21875-.015624.324219-.015624l26.648437-.015626 27.164063.019532c.0625.003906.128906.011718.191406.011718.074219 0 .148437-.007812.226563-.011718l92.398437.066406 48.140625-.058594c22.097656 0 37.089844-5.058594 45.824219-15.472656 7.523437-8.964844 9.949219-21.375 7.210937-36.878906zm-395.917968-134.636719c-4.273438-4.179687-7.039063-8.878906-8.667969-13.296875 8.757812-1.160156 16.320312-4.554688 22.585937-10.160156 22.367188-19.996094 23.128906-62.488282 24.015625-111.691406.277344-15.371094.5625-31.265626 1.585938-46.484376 5.671875-84.382812 70.652343-122.648437 132.535156-123.144531.390625-.003906.773437-.003906 1.167969-.003906 61.523437 0 130.507812 38.886719 137.660156 124.757813 1.398438 16.769531 1.738281 34.203124 2.066406 51.066406.90625 46.476562 1.691406 86.613281 23.070313 105.699218 6.160156 5.503907 13.636719 8.835938 22.324219 9.972657-1.625 4.402343-4.378907 9.089843-8.632813 13.257812-8.375 8.203125-20.851563 12.589844-36.179687 12.792969-14.917969-9.949219-32.453126-20.558594-53.152344-32.875-4.238282-2.519531-9.691406-1.605469-12.875 2.175781-1.125 1.339844-2.316406 2.632813-3.550782 3.890625v-37.6875c22.644532-22.753906 35.902344-54.335937 35.902344-86.515625v-34.644531c.183594.027344.355469.054688.539063.078125 5.519531.8125 10.628906-3.007813 11.4375-8.519531.804687-5.511719-3.011719-10.632813-8.523438-11.4375-4.113281-.597656-7.859375-1.167969-11.324219-1.777344-.25-.058594-.503906-.097656-.761718-.136719-24.738282-4.449219-34.128906-11.132812-49.90625-45.628906-1.554688-3.390625-4.851563-5.652344-8.578125-5.871094-3.722657-.222656-7.265625 1.632813-9.207031 4.820313-29.589844 48.585937-77.210938 48.511718-132.351563 48.492187l-3.546875-.003906s-.003906 0-.007812 0c-5.566407 0-10.082032 4.511719-10.082032 10.082031-.003906 5.566406 4.507813 10.085938 10.078125 10.089844h1.972657v34.457031c0 32.914063 13.6875 64.507813 36.414062 86.882813v37.46875c-1.457031-1.367188-2.828125-2.773438-4.101562-4.21875-3.210938-3.636719-8.550782-4.476563-12.722657-1.996094-20 11.902344-37.617187 22.558594-52.882812 32.886719-15.375-.164063-27.898438-4.5625-36.300781-12.777344zm168.09375 23.804687h13.011718v10.148438h-13.011718zm-7.765626-20.171874-16.222656-7.871094c-5.34375-3.21875-10.824218-4.851563-16.292968-4.851563-.546876 0-1.09375.023438-1.632813.054688v-26.476563c1.816406 1.125 3.660156 2.214844 5.546875 3.234375 13.703125 7.441407 28.546875 11.4375 42.941406 11.566407h.574219c16.410156 0 33.222656-5.199219 48.542969-14.832032v26.566406c-.792969-.070312-1.59375-.113281-2.398438-.113281-5.46875 0-10.949218 1.632813-16.292968 4.851563l-16.222657 7.871094zm-70.5625-176.398438c44.949219-.523438 89.40625-5.167969 120.867188-43.726562 14.105469 25.828124 27.277344 34.820312 49.054688 39.957031v38.289062c0 29.972657-13.769532 59.332031-36.832032 78.53125-14.613281 12.160157-31.503906 18.835938-47.597656 18.835938-.144531 0-.285156 0-.429688 0-11.089843-.097657-22.664062-3.25-33.484374-9.128907-30.851563-16.699218-51.578126-52.160156-51.578126-88.238281zm38.007813 219.570312c-7.25 0-8.03125-8.136718-8.03125-11.636718 0-.035156 0-.066406 0-.101563l-.144531-13.773437c0-.148438-.003906-.300782-.015625-.453125-.101563-1.871094.796875-4.949219 3.015625-7.292969 1.546875-1.636719 3.300781-2.464844 5.210937-2.464844 1.816407 0 3.878907.707032 6.132813 2.109375.296875.183594.605468.351563.917968.503907l13.0625 6.339843v17.980469l-12.46875 6.710938c-2.804687 1.359374-5.457031 2.078124-7.679687 2.078124zm73.5-26.769531 13.0625-6.335937c.316406-.15625.625-.324219.921875-.507813 4.625-2.875 8.328125-2.832031 11.34375.355469 2.214844 2.34375 3.117188 5.421875 3.011719 7.292969-.007813.152343-.011719.304687-.015625.453125l-.140625 13.773437v.101563c0 3.5-.785157 11.636718-8.03125 11.636718-2.222657 0-4.875-.71875-7.683594-2.078124l-12.46875-6.710938zm-151.722656 146.808594v-22.835937c0-5.570313-4.515625-10.085938-10.082031-10.085938-5.570313 0-10.085938 4.515625-10.085938 10.085938v22.824218l-21.820312-.011718c-12.46875 0-27.441407-.8125-32.59375-7.144532-3.136719-3.855468-3.644532-11-1.515626-21.246094 9.507813-45.90625 21.921876-69.289062 55.929688-95.722656v21.449219c0 5.570313 4.515625 10.085937 10.085938 10.085937 5.566406 0 10.082031-4.515624 10.082031-10.085937v-35.902344c12.171875-8.160156 26.398437-16.945312 43.152343-26.976562 2.847657 2.625 5.941407 5.113281 9.25 7.464843-1.816406 4.148438-2.71875 8.621094-2.519531 12.957032l.136719 13.523437c.015625 12.566407 5.265625 22.578125 13.738281 27.796875l22.039063 103.792969-79.851563.035156zm106.414062-.039063-21.355469-100.578124c3.253907-.683594 6.5625-1.835938 9.898438-3.472657.109375-.054687.222656-.113281.332031-.171875l15.710938-8.460937h28.097656l15.710937 8.460937c.109376.058594.222657.117188.332032.171875 3.566406 1.75 7.101562 2.960938 10.578125 3.621094l-21.328125 100.433594-19.175782-.015625zm217.289063-8.253906c-4.601563 5.488282-14.820313 8.269532-30.386719 8.269532l-22.289063.027343v-22.839843c0-5.570313-4.515624-10.085938-10.082031-10.085938-5.570312 0-10.085937 4.515625-10.085937 10.085938v22.863281l-5.675782.007812-80.175781-.058593 22.152344-104.328126c7.988281-5.34375 12.898437-15.113281 12.914063-27.269531l.140624-13.523437c.183594-4.070313-.605468-8.261719-2.207031-12.191406 3.371094-2.519532 6.546875-5.222657 9.5-8.117188 16.746094 10 31.0625 18.710938 43.351563 26.800781v35.964844c0 5.570313 4.515625 10.085937 10.085937 10.085937 5.566407 0 10.082031-4.515624 10.082031-10.085937v-21.820313c33.96875 25.789063 47.246094 49.011719 55.476563 95.800782 1.652344 9.363281.710937 16.230468-2.800781 20.414062zm0 0"/><path d="m222.761719 418.265625h.199219c5.566406 0 10.082031-4.515625 10.082031-10.085937 0-5.570313-4.515625-10.085938-10.082031-10.085938h-.199219c-5.570313 0-10.085938 4.515625-10.085938 10.085938 0 5.570312 4.515625 10.085937 10.085938 10.085937zm0 0"/><path d="m222.789062 440.175781h-.199218c-5.570313 0-10.082032 4.515625-10.082032 10.082031 0 5.570313 4.511719 10.085938 10.082032 10.085938h.199218c5.570313 0 10.085938-4.515625 10.085938-10.085938 0-5.566406-4.515625-10.082031-10.085938-10.082031zm0 0"/><path d="m179.144531 195.96875c5.570313 0 10.085938-4.515625 10.085938-10.085938v-.167968c0-5.566406-4.515625-10.085938-10.085938-10.085938-5.570312 0-10.085937 4.519532-10.085937 10.085938v.167968c0 5.570313 4.515625 10.085938 10.085937 10.085938zm0 0"/><path d="m273.863281 195.800781c5.570313 0 10.085938-4.515625 10.085938-10.085937v-.199219c0-5.566406-4.515625-10.082031-10.085938-10.082031-5.566406 0-10.082031 4.515625-10.082031 10.082031v.199219c0 5.570312 4.515625 10.085937 10.082031 10.085937zm0 0"/><path d="m87.460938 418.753906c-5.570313 0-10.085938 4.511719-10.085938 10.082032v.199218c0 5.570313 4.515625 10.085938 10.085938 10.085938 5.566406 0 10.082031-4.515625 10.082031-10.085938v-.199218c0-5.570313-4.511719-10.082032-10.082031-10.082032zm0 0"/><path d="m358.488281 439.121094c-5.570312 0-10.085937-4.515625-10.085937-10.085938v-.199218c0-5.570313 4.515625-10.082032 10.085937-10.082032 5.566407 0 10.082031 4.511719 10.082031 10.082032v.199218c0 5.570313-4.515624 10.085938-10.082031 10.085938zm0 0"/></svg>