<svg height="512pt" viewBox="-79 0 512 512" width="512pt" xmlns="http://www.w3.org/2000/svg"><path d="m329.429688 193.132812c0-84.433593-44.839844-157.222656-113.140626-177.511718-68.296874 20.289062-113.136718 93.078125-113.136718 177.511718 0 103.613282 73.800781 152.277344 73.800781 152.277344h78.675781s73.800782-48.664062 73.800782-152.277344zm0 0" fill="#e23225"/><path d="m316.636719 373.058594-88.882813-30.488282c-3.507812-1.367187-6.421875-3.613281-8.515625-6.394531-2.089843 2.78125-5.003906 5.027344-8.511719 6.394531l-88.863281 30.488282c-16.570312 6.441406-27.363281 23.949218-27.363281 40.695312v88.246094h249.5v-88.246094c0-16.746094-10.792969-34.257812-27.363281-40.695312zm0 0" fill="#165db2"/><path d="m218.207031 334.671875-41.078125 161.355469-41.179687-163v-27l41.050781 11.710937 41.207031-11.710937zm0 0" fill="#fff"/><path d="m259.355469 353.410156-38.152344 36.921875 8.691406 18.90625-52.894531 82.25 41.207031-156.816406zm0 0" fill="#826f96"/><path d="m94.773438 353.410156 38.148437 36.921875-8.6875 18.90625 52.894531 82.25-41.210937-156.816406zm0 0" fill="#826f96"/><path d="m207.765625 102.914062c-1.144531.949219-2.300781 1.890626-3.46875 2.816407 1.609375-.40625 3.226563-.773438 4.859375-1.109375-.460938-.570313-.933594-1.132813-1.390625-1.707032zm0 0" fill="#ffd0a3"/><path d="m132.378906 247.921875v-94.210937c5.730469-5.796876 11.15625-10.96875 16.351563-15.589844-22.984375 9.222656-47.871094 14.679687-74.019531 15.589844v94.210937c1.226562 14.089844 9.042968 26.632813 20.878906 33.503906l61.539062 30.929688c12.359375 7.175781 27.382813 7.175781 39.742188 0l8.949218-4.511719-52.566406-26.417969c-11.832031-6.867187-19.648437-19.414062-20.875-33.503906zm0 0" fill="#fff"/><path d="m148.730469 138.121094c20.128906-8.074219 38.796875-19.035156 55.566406-32.390625-18.152344 4.617187-35.089844 14.1875-55.566406 32.390625zm0 0" fill="#ffd0a3"/><path d="m279.285156 247.921875v-85.765625c-27.160156-14.1875-51.011718-33.859375-70.128906-57.535156-1.632812.335937-3.25.703125-4.859375 1.109375-16.769531 13.355469-35.4375 24.316406-55.566406 32.390625-5.195313 4.621094-10.621094 9.792968-16.351563 15.589844v94.210937c1.226563 14.089844 9.042969 26.632813 20.875 33.503906l52.566406 26.417969 52.40625-26.417969c11.835938-6.867187 19.835938-19.414062 21.058594-33.503906zm0 0" fill="#ffd0a3"/><path d="m271.675781 227.976562h-73.726562c-4.417969 0-8-3.582031-8-8v-38.433593c0-4.417969 3.582031-8 8-8h73.726562c4.417969 0 8 3.582031 8 8v38.433593c0 4.417969-3.582031 8-8 8zm0 0" fill="#fff"/><path d="m273.875 227.976562h-35.574219c-3.203125 0-5.800781-2.597656-5.800781-5.800781v-42.832031c0-3.203125 2.597656-5.800781 5.800781-5.800781h35.574219c3.203125 0 5.800781 2.597656 5.800781 5.800781v42.832031c0 3.203125-2.597656 5.800781-5.800781 5.800781zm0 0" fill="#64c5f2"/><path d="m164.046875 219.976562v-38.433593c0-4.417969-3.582031-8-8-8h-28.222656c-4.417969 0-8 3.582031-8 8v38.433593c0 4.417969 3.582031 8 8 8h28.222656c4.421875 0 8-3.582031 8-8zm0 0" fill="#64c5f2"/><path d="m320.261719 363.734375c-.125-.046875-.25-.09375-.378907-.136719l-49.488281-16.976562c7.601563-6.417969 18.90625-17.210938 30.195313-32.574219 17.71875-24.121094 38.839844-64.679687 38.839844-120.914063 0-51.433593-15.867188-99.453124-44.679688-135.21875-30.089844-37.347656-71.855469-57.914062-117.609375-57.914062h-.199219c-45.753906 0-87.519531 20.566406-117.609375 57.914062-28.8125 35.765626-44.679687 83.785157-44.679687 135.21875 0 56.230469 21.121094 96.792969 38.839844 120.914063 11.277343 15.347656 22.566406 26.128906 30.167968 32.554687l-49.542968 16.996094c-.128907.046875-.253907.089844-.378907.140625-19.863281 7.722657-33.738281 28.289063-33.738281 50.015625v88.246094c0 5.523438 4.476562 10 10 10h334c5.523438 0 10-4.476562 10-10v-88.246094c0-21.726562-13.875-42.296875-33.738281-50.019531zm-143.199219 88.164063-30.589844-116.40625c1.191406-3.089844 1.84375-6.40625 1.84375-9.84375v-6.53125l4.070313 2.046874c7.605469 4.351563 16.109375 6.527344 24.613281 6.527344 8.507812 0 17.011719-2.175781 24.621094-6.53125l4.039062-2.039062v6.527344c0 3.523437.679688 6.921874 1.929688 10.078124zm22.890625-268.355469h69.335937v34.433593h-69.335937zm-2-20c-5.847656 0-11.039063 2.8125-14.328125 7.144531-2.097656-.617188-4.324219-.953125-6.628906-.953125-2.300782 0-4.523438.335937-6.621094.953125-3.289062-4.332031-8.480469-7.144531-14.328125-7.144531h-71.335937v-.371094c44.335937-3.371094 86.015624-19.253906 121.601562-46.335937 15.804688 18.265624 34.570312 34.144531 55.148438 46.707031zm-113.242187 20h69.335937v34.433593h-69.335937zm0 54.433593h71.335937c9.925781 0 18-8.078124 18-18v-27.84375c0-1.300781 1.351563-2.398437 2.949219-2.398437 1.601562 0 2.953125 1.097656 2.953125 2.398437v27.84375c0 9.921876 8.078125 18 18 18h71.335937v9.480469c-1.042968 10.539063-6.933594 19.910157-15.839844 25.183594l-61.078124 30.789063c-.175782.085937-.347657.179687-.519532.28125-9.296875 5.398437-20.398437 5.398437-29.699218 0-.171876-.101563-.347657-.199219-.527344-.289063l-61.253906-30.785156c-8.785157-5.207031-14.609376-14.578125-15.65625-25.175781zm44.761718 114.050782c.125-.042969.25-.089844.378906-.136719.078126-.03125.148438-.070313.226563-.101563l7.707031 29.332032-24.371094-23.585938zm12.085938 43.460937 9.871094 37.550781-15.824219-24.601562zm71.007812 0 5.953125 12.949219-15.820312 24.601562zm3.773438-14.367187 7.695312-29.273438c.03125.015625.0625.03125.09375.042969.125.046875.25.09375.378906.136719l16.164063 5.546875zm-112.363282-44.046875c-.171874-.117188-17.664062-11.910157-34.855468-35.542969-22.871094-31.4375-34.46875-67.910156-34.46875-108.398438 0-98.703124 61.171875-173.132812 142.289062-173.132812h.199219c81.117187 0 142.289063 74.429688 142.289063 173.132812 0 40.488282-11.597657 76.957032-34.46875 108.398438-17.128907 23.546875-34.550782 35.335938-34.855469 35.539062-.804688.535157-1.503907 1.171876-2.097657 1.875l-16.789062-5.757812c-3.378906-1.378906-5.554688-4.320312-5.554688-7.539062v-16.605469l37.066407-18.683594c.175781-.089844.347656-.183594.519531-.28125 14.777344-8.582031 24.496094-24.015625 26-41.289063.023438-.289062.039062-.578124.039062-.867187v-85.765625c0-3.945312-2.285156-7.355469-5.601562-8.980469-26.144531-13.703125-49.683594-33.226562-68.078125-56.46875-1.671875-2.109375-4.121094-3.457031-6.800781-3.738281-2.667969-.277344-5.351563.53125-7.425782 2.246094-36.304687 30.105468-80.226562 46.875-127.019531 48.503906-5.382812.1875-9.648437 4.605469-9.648437 9.992188v94.210937c0 .289063.011718.578125.035156.867187 1.507812 17.34375 11.160156 32.777344 25.820312 41.289063.171876.101563.351563.195313.527344.285156l37.21875 18.707031v16.578126c0 3.21875-2.175781 6.164062-5.558594 7.539062l-16.710937 5.734375c-.589844-.695313-1.277344-1.320313-2.070313-1.847656zm-83.976562 76.679687c0-13.390625 8.742188-26.523437 20.8125-31.308594l51.371094-17.625 28.695312 27.773438-5.734375 12.46875c-1.421875 3.101562-1.167969 6.714844.675781 9.585938l49.746094 77.351562h-145.566406zm314 78.246094h-145.441406l49.746094-77.351562c1.84375-2.871094 2.101562-6.484376.675781-9.585938l-5.734375-12.46875 28.660156-27.738281 51.28125 17.589843c12.070312 4.785157 20.8125 17.917969 20.8125 31.308594zm0 0"/><path d="m80.445312 115.515625c1.628907.992187 3.425782 1.464844 5.199219 1.464844 3.371094 0 6.664063-1.707031 8.546875-4.792969 13.644532-22.359375 32.640625-37.914062 54.941406-44.984375 5.265626-1.667969 8.179688-7.289063 6.507813-12.554687-1.667969-5.261719-7.289063-8.179688-12.550781-6.507813-26.96875 8.546875-49.777344 27.09375-65.96875 53.628906-2.878906 4.714844-1.390625 10.867188 3.324218 13.746094zm0 0"/><path d="m176.964844 62.964844h.148437c5.523438 0 10-4.480469 10-10 0-5.523438-4.476562-10-10-10h-.148437c-5.523438 0-10 4.476562-10 10 0 5.519531 4.476562 10 10 10zm0 0"/><path d="m319.546875 431.445312-35.894531-17.417968c-2.757813-1.339844-5.976563-1.339844-8.730469 0l-35.894531 17.417968c-4.191406 2.035157-6.425782 6.695313-5.382813 11.238282 1.046875 4.539062 5.085938 7.757812 9.746094 7.757812h1.367187v12.855469c-4.023437 1.296875-6.9375 5.066406-6.9375 9.519531 0 5.523438 4.476563 10 10 10h62.878907c5.523437 0 10-4.476562 10-10 0-4.433594-2.886719-8.1875-6.882813-9.5v-12.875h1.363282c4.660156 0 8.703124-3.21875 9.746093-7.757812 1.046875-4.542969-1.1875-9.203125-5.378906-11.238282zm-50.257813 18.996094v12.375h-4.53125v-12.375zm24.527344 12.375h-4.527344v-12.375h4.527344zm0 0"/></svg>