<?xml version="1.0" encoding="utf-8"?>
<!-- Generator: Adobe Illustrator 22.0.0, SVG Export Plug-In . SVG Version: 6.00 Build 0)  -->
<svg xmlns="http://www.w3.org/2000/svg" xmlns:xlink="http://www.w3.org/1999/xlink" version="1.1" id="Layer_2" x="0px" y="0px" viewBox="0 0 256 256" style="enable-background:new 0 0 256 256;" xml:space="preserve" width="512" height="512">
<style type="text/css">
	.st0{fill:#87796F;}
	.st1{fill:#3A312A;}
	.st2{fill:#FCE8CB;}
	.st3{fill:#D7E057;}
	.st4{fill:#8AC6DD;}
	.st5{fill:#F16C7A;}
	.st6{fill:#DECAAD;}
	.st7{fill:#B9C239;}
	.st8{fill:#695B51;}
	.st9{fill:#8AC6DD;stroke:#3A312A;stroke-width:3;stroke-linecap:round;stroke-linejoin:round;stroke-miterlimit:10;}
	.st10{fill:#6CA8BF;}
	.st11{fill:#D34E5C;}
	.st12{fill-rule:evenodd;clip-rule:evenodd;fill:#FCE8CB;}
	.st13{fill:#F5978A;}
	.st14{fill-rule:evenodd;clip-rule:evenodd;fill:#F16C7A;}
	.st15{fill-rule:evenodd;clip-rule:evenodd;fill:#D7E057;}
</style>
<g>
	<g>
		<g>
			<path class="st2" d="M118.154,183.089h-19.53v-12.693c-5.402,3.745-10.991,5.954-16.415,5.954     c-5.203,0-10.693-2.231-16.073-6.021h-0.331v12.759H46.263c-16.327,0-29.56,13.234-29.56,29.56v26.788h131.012V212.65     C147.715,196.323,134.481,183.089,118.154,183.089z"/>
		</g>
	</g>
	<g>
		<g>
			<path class="st1" d="M118.154,181.59h-18.03v-11.193c0-0.558-0.31-1.07-0.804-1.329c-0.494-0.259-1.092-0.223-1.55,0.097     c-5.443,3.773-10.678,5.687-15.561,5.687c-4.678,0-9.794-1.934-15.209-5.747c-0.253-0.178-0.555-0.273-0.864-0.273h-0.331     c-0.829,0-1.5,0.672-1.5,1.5v11.26H46.263c-17.127,0-31.061,13.934-31.061,31.06v26.788c0,0.828,0.671,1.5,1.5,1.5h44.89     c0.829,0,1.5-0.672,1.5-1.5s-0.671-1.5-1.5-1.5h-43.39v-25.288c0-15.472,12.588-28.06,28.061-28.06h19.542     c0.829,0,1.5-0.672,1.5-1.5v-10.177c5.2,3.278,10.205,4.938,14.904,4.938c4.777,0,9.784-1.576,14.916-4.69v9.93     c0,0.828,0.671,1.5,1.5,1.5h19.53c15.472,0,28.06,12.588,28.06,28.06v25.288H76.36c-0.829,0-1.5,0.672-1.5,1.5s0.671,1.5,1.5,1.5     h71.354c0.829,0,1.5-0.672,1.5-1.5v-26.788C149.214,195.523,135.281,181.59,118.154,181.59z"/>
		</g>
	</g>
	<g>
		<g>
			<path class="st4" d="M118.155,183.081h-4.673l0.122,0.088l-20.315,26.943l-10.483-7.898l-10.483,7.898l-20.315-26.943     l0.121-0.088h-5.866c-16.327,0-29.56,13.234-29.56,29.561v26.799h131.012v-26.799     C147.715,196.314,134.481,183.081,118.155,183.081z"/>
		</g>
	</g>
	<g>
		<g>
			<path class="st1" d="M118.155,181.581h-4.673c-0.65,0-1.227,0.419-1.427,1.038c-0.018,0.057-0.033,0.114-0.044,0.171     l-19.016,25.221l-9.286-6.995c-0.534-0.402-1.271-0.402-1.805,0l-9.286,6.995L53.601,182.79     c-0.011-0.057-0.026-0.114-0.044-0.171c-0.2-0.619-0.777-1.038-1.427-1.038h-5.866c-17.127,0-31.06,13.934-31.06,31.06v26.8     c0,0.828,0.671,1.5,1.5,1.5h44.889c0.829,0,1.5-0.672,1.5-1.5s-0.671-1.5-1.5-1.5H18.203v-25.3     c0-15.472,12.588-28.06,28.06-28.06h4.931l19.931,26.434c0.499,0.661,1.44,0.792,2.1,0.295l9.581-7.218l9.581,7.218     c0.661,0.497,1.601,0.366,2.1-0.295l19.931-26.434h3.737c15.473,0,28.06,12.588,28.06,28.06v25.3H76.359     c-0.829,0-1.5,0.672-1.5,1.5s0.671,1.5,1.5,1.5h71.356c0.829,0,1.5-0.672,1.5-1.5v-26.8     C149.215,195.515,135.282,181.581,118.155,181.581z"/>
		</g>
	</g>
	<g>
		<g>
			<path class="st12" d="M31.449,98.179c-6.424,0-11.631,5.208-11.631,11.632c0,6.424,5.207,11.631,11.631,11.631     c6.424,0,11.632-5.208,11.632-11.631C43.081,103.386,37.873,98.179,31.449,98.179z"/>
		</g>
	</g>
	<g>
		<g>
			<path class="st1" d="M31.45,96.679c-7.241,0-13.132,5.891-13.132,13.132s5.891,13.132,13.132,13.132     c7.241,0,13.131-5.891,13.131-13.132S38.69,96.679,31.45,96.679z M31.45,119.942c-5.587,0-10.132-4.545-10.132-10.132     s4.545-10.132,10.132-10.132c5.586,0,10.131,4.545,10.131,10.132S37.036,119.942,31.45,119.942z"/>
		</g>
	</g>
	<g>
		<g>
			<path class="st12" d="M132.971,98.179c-6.424,0-11.631,5.208-11.631,11.632c0,6.424,5.208,11.631,11.631,11.631     c6.424,0,11.632-5.208,11.632-11.631C144.603,103.386,139.395,98.179,132.971,98.179z"/>
		</g>
	</g>
	<g>
		<g>
			<path class="st1" d="M132.971,96.679c-7.241,0-13.131,5.891-13.131,13.132s5.891,13.132,13.131,13.132     s13.132-5.891,13.132-13.132S140.212,96.679,132.971,96.679z M132.971,119.942c-5.586,0-10.131-4.545-10.131-10.132     s4.545-10.132,10.131-10.132c5.587,0,10.132,4.545,10.132,10.132S138.558,119.942,132.971,119.942z"/>
		</g>
	</g>
	<g>
		<g>
			<path class="st2" d="M82.21,52.601c-28.477,0-51.563,23.086-51.563,51.563s28.524,72.188,51.563,72.188     c24.137,0,51.563-43.711,51.563-72.188S110.688,52.601,82.21,52.601z"/>
		</g>
	</g>
	<g>
		<g>
			<path class="st1" d="M82.21,51.101c-29.259,0-53.063,23.804-53.063,53.063c0,13.838,6.67,32.087,17.408,47.626     c11.277,16.319,24.606,26.062,35.656,26.062c11.633,0,24.781-9.502,36.072-26.07c10.481-15.378,16.991-33.624,16.991-47.618     C135.273,74.904,111.469,51.101,82.21,51.101z M115.804,150.093c-10.566,15.504-23.125,24.76-33.593,24.76     c-10.064,0-22.471-9.259-33.188-24.768c-10.41-15.064-16.876-32.66-16.876-45.921c0-27.605,22.458-50.063,50.063-50.063     c27.605,0,50.063,22.458,50.063,50.063C132.273,117.588,125.962,135.187,115.804,150.093z"/>
		</g>
	</g>
	<g>
		<g>
			<path class="st1" d="M64.006,98.549c-2.78,0-5.033,2.253-5.033,5.033c0,2.78,2.253,5.033,5.033,5.033s5.033-2.253,5.033-5.033     C69.039,100.803,66.785,98.549,64.006,98.549z"/>
		</g>
	</g>
	<g>
		<g>
			<path class="st1" d="M100.415,98.549c-2.78,0-5.033,2.253-5.033,5.033c0,2.78,2.253,5.033,5.033,5.033     c2.78,0,5.033-2.253,5.033-5.033C105.448,100.803,103.195,98.549,100.415,98.549z"/>
		</g>
	</g>
	<g>
		<g>
			<path class="st13" d="M53.947,112.064c-4.788,0-8.67,2.902-8.67,6.481c0,3.579,3.882,6.481,8.67,6.481     c4.788,0,8.67-2.902,8.67-6.481C62.617,114.965,58.735,112.064,53.947,112.064z"/>
		</g>
	</g>
	<g>
		<g>
			<path class="st13" d="M110.474,112.064c-4.788,0-8.67,2.902-8.67,6.481c0,3.579,3.882,6.481,8.67,6.481     c4.788,0,8.669-2.902,8.669-6.481C119.143,114.965,115.262,112.064,110.474,112.064z"/>
		</g>
	</g>
	<g>
		<g>
			<path class="st0" d="M136.175,92.246c0-28.18-23.894-51.025-53.37-51.025c-29.475,0-53.37,22.845-53.37,51.026     c0,2.982,0.539,5.205,1.542,7.981c0.473,1.309,8.115-2.871,8.766-3.329c3.254-2.291,5.913-5.396,7.901-8.829     c0.822-1.427,1.507-2.88,2.059-4.333c1.759-4.635,6.539-17.533,11.392-16.521c6.508,1.356,13.885,2.123,21.71,2.123     c7.825,0,15.202-0.767,21.71-2.123c4.853-1.012,9.633,11.886,11.392,16.521c0.551,1.453,1.237,2.905,2.059,4.333     c3.283,5.679,8.829,11.085,15.575,12.069c0.017-0.326,0.428-0.437,0.735-0.548C136.485,98.788,136.175,94.016,136.175,92.246z"/>
		</g>
	</g>
	<g>
		<g>
			<path class="st1" d="M137.681,92.821l-0.006-0.575c0-28.963-24.614-52.525-54.87-52.525c-30.255,0-54.87,23.563-54.87,52.526     c0,3.31,0.625,5.702,1.631,8.489c0.196,0.542,0.635,0.956,1.206,1.137c0.187,0.059,0.404,0.086,0.646,0.086     c2.854,0,9.127-3.79,9.188-3.834c3.256-2.293,6.138-5.51,8.336-9.308c0.847-1.471,1.574-3.001,2.162-4.549l0.11-0.29     c5.284-13.945,8.265-15.564,9.574-15.295c6.858,1.43,14.266,2.155,22.017,2.155c7.751,0,15.158-0.726,22.017-2.155     c1.307-0.274,4.289,1.351,9.574,15.296l0.109,0.289c0.587,1.547,1.314,3.077,2.163,4.552c4.101,7.094,10.328,11.88,16.657,12.803     c0.421,0.063,0.841-0.058,1.167-0.324c0.104-0.085,0.194-0.183,0.271-0.29c0.014-0.005,0.024-0.009,0.025-0.009     C137.785,99.912,137.718,95.3,137.681,92.821z M133.691,98.206c-0.149,0.053-0.416,0.146-0.692,0.315     c-5.171-1.059-10.257-5.19-13.732-11.2c-0.768-1.334-1.426-2.719-1.956-4.117l-0.109-0.287     c-3.452-9.11-7.692-18.258-12.992-17.171c-6.658,1.389-13.859,2.093-21.404,2.093c-7.546,0-14.747-0.704-21.404-2.093     c-5.307-1.096-9.539,8.061-12.991,17.17l-0.109,0.288c-0.531,1.398-1.19,2.784-1.955,4.113c-1.981,3.421-4.562,6.311-7.461,8.352     c-0.895,0.607-5.023,2.729-6.789,3.213c-0.723-2.139-1.16-4.09-1.16-6.635c0-27.309,23.269-49.526,51.87-49.526     c28.601,0,51.87,22.217,51.87,49.525l0.006,0.619C134.745,97.177,134.134,98.046,133.691,98.206z"/>
		</g>
	</g>
	<g>
		<g>
			
				<rect x="60.84" y="175.8" transform="matrix(0.7986 -0.6019 0.6019 0.7986 -102.3814 79.3887)" class="st0" width="13.182" height="33.743"/>
		</g>
	</g>
	<g>
		<g>
			<path class="st1" d="M84.046,201.275l-20.308-26.946c-0.239-0.318-0.595-0.527-0.989-0.583c-0.394-0.054-0.793,0.048-1.111,0.287     l-10.527,7.934c-0.662,0.499-0.794,1.439-0.295,2.101l20.308,26.946c0.239,0.318,0.595,0.527,0.989,0.583     c0.069,0.01,0.139,0.015,0.208,0.015c0.324,0,0.641-0.104,0.903-0.302l10.527-7.934     C84.413,202.877,84.544,201.937,84.046,201.275z M72.616,208.011L54.114,183.46l8.131-6.128l18.503,24.551L72.616,208.011z"/>
		</g>
	</g>
	<g>
		<g>
			
				<rect x="81.309" y="186.08" transform="matrix(0.6019 -0.7986 0.7986 0.6019 -114.7783 155.1187)" class="st0" width="33.743" height="13.182"/>
		</g>
	</g>
	<g>
		<g>
			<path class="st1" d="M114.5,181.967l-10.527-7.934c-0.318-0.24-0.719-0.342-1.111-0.287c-0.394,0.056-0.75,0.265-0.989,0.583     l-20.308,26.946c-0.498,0.661-0.367,1.602,0.295,2.101l10.527,7.934c0.262,0.197,0.579,0.302,0.903,0.302     c0.069,0,0.139-0.005,0.208-0.015c0.394-0.056,0.75-0.265,0.989-0.583l20.308-26.946     C115.294,183.406,115.162,182.466,114.5,181.967z M92.995,208.011l-8.131-6.128l18.502-24.551l8.131,6.128L92.995,208.011z"/>
		</g>
	</g>
	<g>
		<g>
			<path class="st1" d="M41.243,216.768c-0.829,0-1.5,0.672-1.5,1.5v21.173c0,0.828,0.671,1.5,1.5,1.5s1.5-0.672,1.5-1.5v-21.173     C42.743,217.439,42.071,216.768,41.243,216.768z"/>
		</g>
	</g>
	<g>
		<g>
			<path class="st1" d="M124.368,216.768c-0.829,0-1.5,0.672-1.5,1.5v21.173c0,0.828,0.671,1.5,1.5,1.5c0.829,0,1.5-0.672,1.5-1.5     v-21.173C125.868,217.439,125.197,216.768,124.368,216.768z"/>
		</g>
	</g>
	<g>
		<g>
			<path class="st0" d="M81.841,22.7C45.493,44.084,24.396,2.978,24.396,21.724c0,5.926,2.387,11.835,5.521,17.212l8.675,12.297     c8.753,11.021,19.223,22.772,31.868,26.367c20.368,5.791,56.418-1.433,56.418-30.749C126.878,28.106,111.165,5.449,81.841,22.7z"/>
		</g>
	</g>
	<g>
		<g>
			<path class="st1" d="M113.475,18.223c-6.241-3.57-16.926-5.914-32.395,3.185c-21.144,12.438-36.889,2.996-46.295-2.646     c-4.471-2.68-7.423-4.451-9.719-3.153c-1.924,1.09-2.171,3.842-2.171,6.117c0,5.48,1.873,11.357,5.725,17.967     c0.417,0.716,1.335,0.959,2.051,0.541c0.716-0.417,0.958-1.336,0.541-2.051c-3.578-6.139-5.317-11.522-5.317-16.457     c0-3.104,0.623-3.492,0.649-3.507c0.769-0.441,4.196,1.615,6.697,3.116c9.324,5.592,26.68,16.001,49.36,2.659     c11.261-6.625,21.423-7.72,29.384-3.167c9.251,5.291,13.392,16.884,13.392,26.026c0,9.279-3.717,16.792-11.047,22.329     c-12.208,9.222-31.103,10.488-43.46,6.977c-11.997-3.411-22.039-14.443-31.103-25.856c-0.516-0.648-1.459-0.758-2.108-0.242     c-0.648,0.516-0.757,1.459-0.242,2.107c9.376,11.807,19.82,23.234,32.633,26.876c4.306,1.225,9.365,1.896,14.681,1.896     c10.819,0,22.696-2.785,31.407-9.364c8.007-6.048,12.239-14.597,12.239-24.723C128.377,36.844,123.769,24.109,113.475,18.223z"/>
		</g>
	</g>
	<g>
		<g>
			<path class="st1" d="M96.982,135.717c-0.776-0.293-1.641,0.102-1.931,0.878c-1.022,2.73-5.022,7.895-12.843,7.895     c-6.109,0-10.327-2.621-12.894-8.013c-0.356-0.748-1.25-1.064-2-0.71c-0.747,0.356-1.065,1.251-0.709,1.999     c3.072,6.452,8.321,9.724,15.603,9.724c8.222,0,13.877-5.102,15.652-9.842C98.152,136.871,97.758,136.007,96.982,135.717z"/>
		</g>
	</g>
	<g>
		<g>
			<path class="st3" d="M195.365,57.253c-0.974,11.564-13.025,13.389-13.025,13.389c10.347,0.487,12.925,14.059,12.925,14.059     c0.221-9.677,13.321-14.202,13.321-14.202C198.773,69.912,195.365,57.253,195.365,57.253z"/>
		</g>
	</g>
	<g>
		<g>
			<path class="st1" d="M208.676,69.002c-8.604-0.515-11.832-12.024-11.863-12.141c-0.191-0.703-0.862-1.169-1.583-1.102     c-0.725,0.066-1.298,0.642-1.359,1.367c-0.86,10.215-11.314,11.964-11.755,12.032c-0.763,0.116-1.313,0.791-1.273,1.561     c0.04,0.771,0.657,1.385,1.427,1.421c9.028,0.426,11.499,12.718,11.523,12.843c0.137,0.711,0.759,1.217,1.472,1.217     c0.042,0,0.084-0.002,0.126-0.005c0.764-0.064,1.357-0.693,1.375-1.46c0.195-8.509,12.192-12.777,12.313-12.819     c0.675-0.234,1.092-0.914,0.994-1.622C209.974,69.585,209.39,69.044,208.676,69.002z M195.11,79.348     c-1.357-3.13-3.709-6.907-7.587-8.876c2.931-1.405,6.409-3.914,8.202-8.273c1.551,3.071,4.199,6.88,8.334,8.723     C201.052,72.561,197.137,75.326,195.11,79.348z"/>
		</g>
	</g>
	<g>
		<g>
			<path class="st3" d="M173.666,74.233c-0.689,8.179-9.212,9.471-9.212,9.471c7.318,0.344,9.142,9.944,9.142,9.944     c0.156-6.844,9.422-10.045,9.422-10.045C176.077,83.188,173.666,74.233,173.666,74.233z"/>
		</g>
	</g>
	<g>
		<g>
			<path class="st1" d="M183.107,82.105c-5.766-0.345-7.972-8.186-7.994-8.265c-0.19-0.702-0.853-1.166-1.582-1.102     c-0.726,0.065-1.299,0.643-1.36,1.368c-0.579,6.871-7.646,8.066-7.942,8.113c-0.763,0.116-1.313,0.791-1.273,1.561     c0.04,0.771,0.657,1.385,1.427,1.421c6.036,0.284,7.724,8.645,7.739,8.727c0.135,0.712,0.759,1.22,1.472,1.22     c0.042,0,0.083-0.002,0.125-0.005c0.765-0.063,1.358-0.693,1.376-1.461c0.131-5.709,8.332-8.634,8.413-8.662     c0.677-0.234,1.094-0.913,0.996-1.622C184.407,82.689,183.822,82.147,183.107,82.105z M173.523,88.9     c-0.924-1.885-2.34-3.947-4.447-5.279c1.855-1.041,3.697-2.63,4.871-4.917c1.057,1.874,2.654,3.955,4.941,5.224     C177.038,85.028,174.899,86.668,173.523,88.9z"/>
		</g>
	</g>
	<g>
		<g>
			<path class="st3" d="M173.666,47.576c-0.689,8.179-9.212,9.47-9.212,9.47c7.318,0.344,9.142,9.944,9.142,9.944     c0.156-6.845,9.422-10.045,9.422-10.045C176.077,56.53,173.666,47.576,173.666,47.576z"/>
		</g>
	</g>
	<g>
		<g>
			<path class="st1" d="M183.107,55.448c-5.766-0.345-7.972-8.186-7.994-8.265c-0.19-0.702-0.853-1.175-1.582-1.102     c-0.726,0.065-1.299,0.643-1.36,1.368c-0.579,6.87-7.646,8.066-7.942,8.113c-0.763,0.116-1.314,0.791-1.273,1.561     c0.04,0.771,0.657,1.385,1.428,1.421c6.035,0.284,7.723,8.644,7.739,8.726c0.135,0.712,0.759,1.22,1.472,1.22     c0.042,0,0.083-0.002,0.125-0.005c0.765-0.063,1.358-0.693,1.376-1.461c0.131-5.708,8.332-8.633,8.413-8.661     c0.677-0.234,1.094-0.913,0.996-1.622C184.407,56.032,183.822,55.49,183.107,55.448z M173.523,62.243     c-0.924-1.886-2.339-3.947-4.447-5.28c1.855-1.041,3.697-2.629,4.87-4.916c1.057,1.874,2.654,3.955,4.941,5.224     C177.038,58.371,174.899,60.011,173.523,62.243z"/>
		</g>
	</g>
	<g>
		<g>
			<path class="st3" d="M134.22,169.251v60.151c0,5.542,4.493,10.035,10.035,10.035h85.008c5.542,0,10.035-4.493,10.035-10.035     v-60.151H134.22z"/>
		</g>
	</g>
	<g>
		<g>
			<path class="st1" d="M239.297,167.752H134.22c-0.829,0-1.5,0.672-1.5,1.5v60.15c0,6.36,5.175,11.535,11.535,11.535h85.007     c6.36,0,11.535-5.175,11.535-11.535v-60.15C240.797,168.424,240.126,167.752,239.297,167.752z M237.797,229.402     c0,4.706-3.829,8.535-8.535,8.535h-85.007c-4.706,0-8.535-3.829-8.535-8.535v-58.65h102.078V229.402z"/>
		</g>
	</g>
	<g>
		<g>
			<rect x="134.22" y="169.251" class="st2" width="105.077" height="14.875"/>
		</g>
	</g>
	<g>
		<g>
			<path class="st1" d="M239.297,167.751H134.22c-0.829,0-1.5,0.672-1.5,1.5v14.876c0,0.828,0.671,1.5,1.5,1.5h105.078     c0.829,0,1.5-0.672,1.5-1.5v-14.876C240.797,168.423,240.126,167.751,239.297,167.751z M237.797,182.627H135.72v-11.876h102.078     V182.627z"/>
		</g>
	</g>
	<g>
		<g>
			<polygon class="st5" points="142.98,169.251 134.22,184.126 144.455,184.126 153.216,169.251    "/>
		</g>
	</g>
	<g>
		<g>
			<path class="st1" d="M154.518,168.507c-0.267-0.468-0.764-0.756-1.302-0.756H142.98c-0.531,0-1.023,0.281-1.292,0.739     l-8.761,14.876c-0.273,0.463-0.277,1.038-0.01,1.505c0.267,0.468,0.764,0.756,1.302,0.756h10.236     c0.531,0,1.023-0.281,1.292-0.739l8.76-14.876C154.781,169.549,154.785,168.974,154.518,168.507z M143.598,182.627h-6.754     l6.994-11.876h6.754L143.598,182.627z"/>
		</g>
	</g>
	<g>
		<g>
			<polygon class="st5" points="164.501,169.251 155.74,184.126 165.976,184.126 174.736,169.251    "/>
		</g>
	</g>
	<g>
		<g>
			<path class="st1" d="M176.039,168.507c-0.267-0.468-0.764-0.756-1.302-0.756H164.5c-0.531,0-1.023,0.281-1.292,0.739     l-8.76,14.876c-0.273,0.463-0.277,1.038-0.01,1.505c0.267,0.468,0.764,0.756,1.302,0.756h10.235c0.531,0,1.023-0.281,1.292-0.739     l8.761-14.876C176.302,169.549,176.306,168.974,176.039,168.507z M165.118,182.627h-6.754l6.994-11.876h6.754L165.118,182.627z"/>
		</g>
	</g>
	<g>
		<g>
			<polygon class="st5" points="186.021,169.251 177.261,184.126 187.496,184.126 196.257,169.251    "/>
		</g>
	</g>
	<g>
		<g>
			<path class="st1" d="M197.559,168.507c-0.267-0.468-0.764-0.756-1.302-0.756h-10.235c-0.531,0-1.023,0.281-1.293,0.739     l-8.76,14.876c-0.273,0.463-0.277,1.038-0.01,1.505c0.267,0.468,0.764,0.756,1.302,0.756h10.235c0.531,0,1.023-0.281,1.292-0.739     l8.76-14.876C197.822,169.549,197.826,168.974,197.559,168.507z M186.639,182.627h-6.754l6.994-11.876h6.754L186.639,182.627z"/>
		</g>
	</g>
	<g>
		<g>
			<polygon class="st5" points="207.542,169.251 198.781,184.126 209.016,184.126 217.777,169.251    "/>
		</g>
	</g>
	<g>
		<g>
			<path class="st1" d="M219.079,168.507c-0.267-0.468-0.764-0.756-1.302-0.756h-10.235c-0.531,0-1.023,0.281-1.292,0.739     l-8.761,14.876c-0.273,0.463-0.277,1.038-0.01,1.505c0.267,0.468,0.764,0.756,1.302,0.756h10.236     c0.531,0,1.023-0.281,1.292-0.739l8.76-14.876C219.342,169.549,219.346,168.974,219.079,168.507z M208.159,182.627h-6.754     l6.994-11.876h6.754L208.159,182.627z"/>
		</g>
	</g>
	<g>
		<g>
			<polygon class="st5" points="229.062,169.251 220.301,184.126 230.537,184.126 239.297,169.251    "/>
		</g>
	</g>
	<g>
		<g>
			<path class="st1" d="M240.6,168.507c-0.267-0.468-0.764-0.756-1.302-0.756h-10.235c-0.531,0-1.023,0.281-1.293,0.739     l-8.761,14.876c-0.273,0.463-0.277,1.038-0.01,1.505c0.267,0.468,0.764,0.756,1.302,0.756h10.235     c0.531,0,1.023-0.281,1.293-0.739l8.761-14.876C240.863,169.549,240.867,168.974,240.6,168.507z M229.679,182.627h-6.754     l6.994-11.876h6.754L229.679,182.627z"/>
		</g>
	</g>
	<g>
		<g>
			<path class="st2" d="M236.126,142.628c-0.387-1.961-1.424-3.626-2.843-4.818c-1.886-1.589-4.446-2.338-7.048-1.824l-1.777,0.349     l-84.781,16.694c-4.573,0.9-7.548,5.332-6.648,9.901l1.245,6.322l84.461-16.633l10.042-1.975l8.594-1.693L236.126,142.628z"/>
		</g>
	</g>
	<g>
		<g>
			<path class="st1" d="M238.842,148.66l-1.245-6.322c-0.436-2.211-1.625-4.227-3.348-5.676c-2.315-1.95-5.345-2.732-8.303-2.148     l-86.56,17.043c-2.605,0.513-4.853,2.008-6.332,4.21c-1.479,2.203-2.011,4.85-1.498,7.452l1.245,6.322     c0.077,0.39,0.306,0.733,0.636,0.955c0.249,0.168,0.541,0.255,0.836,0.255c0.097,0,0.194-0.01,0.29-0.028l103.097-20.301     C238.473,150.262,239.002,149.474,238.842,148.66z M135.456,167.489l-0.955-4.851c-0.358-1.816,0.013-3.663,1.045-5.199     c1.032-1.537,2.602-2.581,4.421-2.939l84.78-16.694l1.779-0.349c0.448-0.089,0.898-0.132,1.346-0.132     c1.613,0,3.181,0.566,4.447,1.633c1.22,1.025,2.028,2.396,2.336,3.96l0.955,4.851L135.456,167.489z"/>
		</g>
	</g>
	<g>
		<g>
			<polygon class="st5" points="139.996,152.964 134.274,169.251 144.317,167.274 150.039,150.986    "/>
		</g>
	</g>
	<g>
		<g>
			<path class="st1" d="M151.172,150.004c-0.352-0.406-0.893-0.596-1.424-0.489l-10.042,1.978c-0.521,0.103-0.949,0.474-1.125,0.975     l-5.722,16.287c-0.179,0.508-0.071,1.072,0.281,1.479c0.288,0.332,0.703,0.518,1.134,0.518c0.096,0,0.193-0.009,0.29-0.028     l10.043-1.978c0.521-0.103,0.949-0.474,1.125-0.975l5.721-16.287C151.632,150.976,151.525,150.411,151.172,150.004z      M143.186,165.968l-6.627,1.305l4.567-13.003l6.626-1.305L143.186,165.968z"/>
		</g>
	</g>
	<g>
		<g>
			<polygon class="st5" points="161.111,148.806 155.389,165.094 165.432,163.116 171.153,146.828    "/>
		</g>
	</g>
	<g>
		<g>
			<path class="st1" d="M172.287,145.846c-0.352-0.406-0.893-0.596-1.424-0.489l-10.042,1.978c-0.521,0.103-0.949,0.474-1.125,0.975     l-5.722,16.288c-0.179,0.508-0.071,1.072,0.281,1.479c0.288,0.332,0.703,0.518,1.134,0.518c0.096,0,0.193-0.009,0.29-0.028     l10.043-1.978c0.521-0.103,0.949-0.474,1.125-0.975l5.721-16.288C172.747,146.817,172.64,146.253,172.287,145.846z      M164.301,161.811l-6.627,1.305l4.567-13.004l6.627-1.305L164.301,161.811z"/>
		</g>
	</g>
	<g>
		<g>
			<polygon class="st5" points="182.226,144.648 176.504,160.936 186.547,158.958 192.268,142.67    "/>
		</g>
	</g>
	<g>
		<g>
			<path class="st1" d="M193.402,141.688c-0.352-0.406-0.894-0.597-1.424-0.489l-10.043,1.979c-0.521,0.103-0.949,0.474-1.125,0.975     l-5.721,16.287c-0.179,0.508-0.071,1.072,0.281,1.479c0.288,0.332,0.703,0.518,1.134,0.518c0.096,0,0.193-0.009,0.29-0.028     l10.042-1.978c0.521-0.103,0.949-0.474,1.125-0.975l5.721-16.288C193.862,142.659,193.754,142.095,193.402,141.688z      M185.416,157.652l-6.626,1.305l4.567-13.003l6.627-1.305L185.416,157.652z"/>
		</g>
	</g>
	<g>
		<g>
			<polygon class="st5" points="203.341,140.49 197.619,156.778 207.662,154.8 213.383,138.512    "/>
		</g>
	</g>
	<g>
		<g>
			<path class="st1" d="M214.517,137.53c-0.352-0.405-0.895-0.596-1.424-0.489l-10.042,1.978c-0.521,0.103-0.949,0.474-1.125,0.975     l-5.722,16.287c-0.179,0.508-0.071,1.072,0.281,1.479c0.287,0.332,0.703,0.518,1.134,0.518c0.096,0,0.193-0.009,0.29-0.028     l10.042-1.978c0.521-0.103,0.949-0.474,1.125-0.975l5.722-16.287C214.977,138.502,214.87,137.938,214.517,137.53z      M206.531,153.494l-6.626,1.305l4.567-13.003l6.626-1.305L206.531,153.494z"/>
		</g>
	</g>
	<g>
		<g>
			<path class="st5" d="M226.235,135.985l-1.777,0.349l-5.723,16.284l10.042-1.975l4.507-12.833     C231.397,136.221,228.837,135.471,226.235,135.985z"/>
		</g>
	</g>
	<g>
		<g>
			<path class="st1" d="M234.249,136.662c-2.315-1.95-5.345-2.732-8.303-2.148l-1.777,0.349c-0.522,0.102-0.95,0.473-1.126,0.975     l-5.723,16.284c-0.179,0.508-0.071,1.072,0.281,1.479c0.288,0.333,0.704,0.519,1.134,0.519c0.096,0,0.193-0.009,0.289-0.028     l10.042-1.976c0.522-0.103,0.95-0.474,1.126-0.975l4.507-12.833C234.905,137.719,234.727,137.064,234.249,136.662z      M227.646,149.336l-6.626,1.304l4.569-12.999l0.937-0.184c1.732-0.343,3.497-0.014,4.974,0.905L227.646,149.336z"/>
		</g>
	</g>
	<g>
		<g>
			<path class="st4" d="M216.204,199.26h-58.892c-2.561,0-4.638,2.076-4.638,4.638v12.78c0,2.561,2.076,4.638,4.638,4.638h58.892     c2.561,0,4.638-2.076,4.638-4.638v-12.78C220.842,201.336,218.766,199.26,216.204,199.26z"/>
		</g>
	</g>
	<g>
		<g>
			<path class="st1" d="M216.205,197.76h-58.892c-3.384,0-6.138,2.753-6.138,6.138v12.779c0,3.385,2.753,6.138,6.137,6.138h58.892     c3.384,0,6.138-2.753,6.138-6.138v-12.779C222.342,200.513,219.589,197.76,216.205,197.76z M219.342,216.677     c0,1.73-1.408,3.138-3.138,3.138h-58.892c-1.73,0-3.137-1.407-3.137-3.138v-12.779c0-1.73,1.408-3.138,3.138-3.138h58.892     c1.73,0,3.138,1.407,3.138,3.138V216.677z"/>
		</g>
	</g>
	<g>
		<g>
			
				<ellipse transform="matrix(0.3827 -0.9239 0.9239 0.3827 -71.9297 230.8525)" class="st3" cx="136.783" cy="169.251" rx="8.093" ry="8.093"/>
		</g>
	</g>
	<g>
		<g>
			<path class="st1" d="M136.783,159.658c-5.289,0-9.593,4.304-9.593,9.593c0,5.29,4.304,9.594,9.593,9.594     c5.29,0,9.593-4.304,9.593-9.594C146.376,163.962,142.072,159.658,136.783,159.658z M136.783,175.845     c-3.636,0-6.593-2.958-6.593-6.594s2.957-6.593,6.593-6.593c3.636,0,6.593,2.957,6.593,6.593S140.418,175.845,136.783,175.845z"/>
		</g>
	</g>
	<g>
		<g>
			<path class="st2" d="M136.783,165.538c-2.051,0-3.714,1.663-3.714,3.714s1.663,3.714,3.714,3.714     c2.051,0,3.714-1.663,3.714-3.714S138.834,165.538,136.783,165.538z"/>
		</g>
	</g>
	<g>
		<g>
			<path class="st1" d="M136.783,164.038c-2.875,0-5.214,2.339-5.214,5.213c0,2.875,2.339,5.214,5.214,5.214     s5.214-2.339,5.214-5.214C141.997,166.377,139.658,164.038,136.783,164.038z M136.783,171.465c-1.221,0-2.214-0.993-2.214-2.214     c0-1.22,0.993-2.213,2.214-2.213c1.221,0,2.214,0.993,2.214,2.213C138.997,170.472,138.003,171.465,136.783,171.465z"/>
		</g>
	</g>
	<g>
		<g>
			<path class="st8" d="M111.989,20.825c-5.32-3.04-11.61-3.56-18.55-1.6c1.23,0.42,2.41,0.95,3.55,1.6     c9.25,5.29,13.39,16.88,13.39,26.03c0,9.28-3.72,16.79-11.05,22.33c-6.17,4.66-14.04,7.28-21.91,8.29     c11.83,1.56,26.7-0.58,36.91-8.29c7.33-5.54,11.05-13.05,11.05-22.33C125.379,37.705,121.239,26.115,111.989,20.825z"/>
		</g>
	</g>
	<g>
		<g>
			<polygon class="st6" points="224.299,170.755 224.299,174.385 226.439,170.755    "/>
		</g>
	</g>
	<g>
		<g>
			<path class="st6" d="M217.319,139.275c0.95,0.33,1.83,0.84,2.6,1.49c0.37,0.31,0.72,0.65,1.03,1.03l1.22-3.48L217.319,139.275z"/>
		</g>
	</g>
	<g>
		<g>
			<path class="st7" d="M224.299,185.625v43.78c0,3.6-1.9,6.76-4.75,8.53h9.71c4.71,0,8.54-3.83,8.54-8.53v-43.78H224.299z"/>
		</g>
	</g>
	<g>
		<g>
			<polygon class="st6" points="233.161,182.626 237.798,182.626 237.798,174.754    "/>
		</g>
	</g>
	<g>
		<g>
			<polygon class="st11" points="229.919,170.755 224.299,180.295 224.299,182.625 229.679,182.625 236.669,170.755    "/>
		</g>
	</g>
	<g>
		<g>
			<path class="st6" d="M234.654,142.918c-0.153-0.775-0.43-1.501-0.816-2.162l-2.777,7.908l4.549-0.896L234.654,142.918z"/>
		</g>
	</g>
	<g>
		<g>
			<path class="st11" d="M226.529,137.455l-0.94,0.19l-2.81,7.99l0.88,4.48l3.99-0.78l3.85-10.97     C230.019,137.445,228.259,137.115,226.529,137.455z"/>
		</g>
	</g>
</g>
</svg>
