<svg height="511pt" viewBox="-72 0 511 511.99882" width="511pt" xmlns="http://www.w3.org/2000/svg"><path d="m222.777344 312.398438v23.652343l-38.289063 168.972657-40.710937-168.972657v-23.652343zm0 0" fill="#fff"/><path d="m329.988281 373.054688-92.609375-30.484376c-5.257812-1.960937-9.25-5.742187-11.222656-10.324218-1.976562 4.582031-5.96875 8.359375-11.226562 10.324218l-92.585938 30.484376c-17.265625 6.445312-28.507812 23.953124-28.507812 40.699218v88.242188h264.664062v-88.242188c-.003906-16.75-11.246094-34.257812-28.511719-40.699218zm0 0" fill="#165db2"/><path d="m161.679688 291.34375 51.804687 27.199219 51.652344-27.199219c11.75-7.125 19.691406-20.136719 20.90625-34.75v-128.59375h-145.089844v128.59375c1.214844 14.613281 8.976563 27.625 20.726563 34.75zm0 0" fill="#ffd0a3"/><path d="m279.171875 233.972656h-73.722656c-4.417969 0-8-3.582031-8-8v-38.429687c0-4.417969 3.582031-8 8-8h73.722656c4.417969 0 8 3.582031 8 8v38.429687c0 4.421875-3.582031 8-8 8zm0 0" fill="#64c5f2"/><path d="m163.546875 233.972656h-73.722656c-4.417969 0-8-3.582031-8-8v-38.429687c0-4.417969 3.582031-8 8-8h73.722656c4.417969 0 8 3.582031 8 8v38.429687c0 4.421875-3.582031 8-8 8zm0 0" fill="#64c5f2"/><path d="m102.503906 353.40625 29.828125 45.261719-13.507812 24.945312 59.351562 78.382813-33.984375-176.347656zm0 0" fill="#826f96"/><path d="m266.496094 353.40625-29.832032 45.261719 13.511719 24.945312-59.355469 78.382813 33.960938-176.347656zm0 0" fill="#826f96"/><path d="m117.433594 113.765625v29.730469c.519531.011718 1.039062.027344 1.566406.027344h95.769531c56.21875 0 101.792969-45.574219 101.792969-101.792969v-12.265625h-114.828125c-46.558594 0-84.300781 37.742187-84.300781 84.300781zm0 0" fill="#591700"/><path d="m155.644531 385.066406 28.855469-24.519531 28.839844 24.519531 9.4375-49.015625-38.277344 24.496094-38.300781-24.496094zm0 0" fill="#0092e0"/><path d="m277.753906 128v47.644531l8.871094 35.972657c16.46875 0 29.9375-13.472657 29.9375-29.9375v-139.949219zm0 0" fill="#591700"/><path d="m333.484375 363.6875c-.121094-.046875-.246094-.089844-.371094-.128906l-92.394531-30.417969c-3.613281-1.40625-5.9375-4.332031-5.9375-7.492187v-.101563c0-.011719 0-.027344 0-.039063v-6.875l35.015625-18.4375c.175781-.09375.351563-.195312.523437-.300781 14.609376-8.855469 24.210938-24.734375 25.6875-42.46875.023438-.277343.035157-.554687.035157-.828125v-36.113281c17.492187-4.246094 30.519531-20.027344 30.519531-38.804687v-171.679688c0-4.246094-2.679688-8.03125-6.6875-9.4375-4.007812-1.402344-8.464844-.125-11.121094 3.191406-.125.15625-13.03125 15.710938-29.5625 15.710938h-142.457031c-52 0-94.300781 42.300781-94.300781 94.300781v67.910156c0 18.398438 13.203125 34.386719 30.519531 38.9375v35.980469c0 .277344.011719.554688.035156.828125 1.484375 17.808594 11.019531 33.6875 25.503907 42.472656.179687.105469.355468.207031.539062.304688l35.164062 18.460937v6.84375.046875.097657c0 3.160156-2.328124 6.085937-5.9375 7.492187l-92.375 30.417969c-.125.039062-.25.082031-.371093.128906-20.613281 7.691406-35.011719 28.277344-35.011719 50.0625v88.246094c0 5.523437 4.476562 10 10 10h167.664062c.003907 0 .011719.003906.015626.003906.007812 0 .011718-.003906.019531-.003906h12.597656c.007813 0 .011719.003906.019531.003906.007813 0 .011719-.003906.015625-.003906h167.664063c5.523437 0 10-4.476563 10-10v-88.246094c0-21.785156-14.398438-42.371094-35.011719-50.0625zm-81.855469-5.898438-23.316406 35.375c-2.027344 3.078126-2.199219 7.023438-.441406 10.265626l10.441406 19.28125-29.558594 39.035156 14.402344-74.78125c0-.003906.003906-.003906.003906-.007813l7.058594-36.667969c1.171875.613282 2.390625 1.171876 3.664062 1.648438.121094.046875.246094.089844.367188.128906zm-44.871094 8.558594-5.484374-4.664062 7.28125-4.65625zm-4.34375 22.558594-17.917968 93.042969-17.929688-93.042969 17.929688-15.234375zm11.355469-58.960938-29.273437 18.730469-29.292969-18.734375-.054687-.277344 4.71875 2.472657c7.613281 4.550781 16.121093 6.824219 24.632812 6.824219s17.023438-2.277344 24.636719-6.828126l4.6875-2.464843zm-46.054687 31.738282-5.492188 4.671875-1.800781-9.335938zm-74.761719-149.761719c0-.003906 0-21.6875 0-21.6875h68.734375v36.238281h-68.734375zm85.179687-34.378906c-3.28125-4.421875-8.523437-7.308594-14.445312-7.308594h-70.738281c0-6.464844 0-13.554687 0-21.210937 8.191406 2.992187 16.902343 4.5 26.050781 4.5h95.769531c19.15625 0 37.207031-4.847657 52.984375-13.375v30.085937h-62.445312c-5.921875 0-11.164063 2.886719-14.445313 7.308594-2.023437-.589844-4.15625-.910157-6.367187-.910157-2.207032 0-4.339844.324219-6.363282.910157zm29.175782 12.691406h68.734375v36.238281h-68.734375zm99.253906-8.554687c0 7.585937-4.261719 14.199218-10.519531 17.566406v-7.886719c0-.003906 0-.011719 0-.015625v-3.105469c0-6.347656-3.3125-11.925781-8.289063-15.132812v-45.105469c0-.527344-.054687-1.039062-.132812-1.542969 7.160156-6.164062 13.53125-13.222656 18.941406-20.996093zm-244.128906 0v-67.914063c0-40.96875 33.332031-74.300781 74.300781-74.300781h142.457031c10.679688 0 20.007813-3.667969 27.371094-8.09375v10.359375c0 50.613281-41.175781 91.792969-91.792969 91.792969h-95.769531c-11.191406 0-21.46875-3.039063-30.539062-9.03125-3.070313-2.03125-7.007813-2.207032-10.25-.464844-3.242188 1.742187-5.261719 5.125-5.261719 8.808594 0 29.542968 0 52.941406.003906 66.328124-6.175781-3.574218-10.519531-10.230468-10.519531-17.484374zm30.519531 74.476562v-9.683594h70.734375c9.925781 0 18-8.074218 18-18v-29.027344c0-1.550781 1.261719-2.8125 2.808594-2.8125 1.550781 0 2.8125 1.261719 2.8125 2.8125v29.027344c0 9.925782 8.074218 18 18 18h70.734375v9.683594c-1.042969 11.117188-6.941407 20.976562-15.851563 26.492188l-60.625 31.921874c-.179687.09375-.355468.195313-.527344.300782-9.105468 5.519531-19.976562 5.519531-29.082031 0-.175781-.109375-.355469-.210938-.535156-.304688l-60.804687-31.921875c-8.789063-5.449219-14.617188-15.308593-15.664063-26.488281zm41.769531 95.910156c.125-.039062.25-.082031.371094-.128906 1.273438-.476562 2.492188-1.035156 3.664062-1.652344l7.097657 36.835938c.003906.003906.003906.007812.003906.011718l14.375 74.605469-29.550781-39.027343 10.445312-19.28125c1.753906-3.242188 1.582032-7.1875-.445312-10.265626l-23.320313-35.378906zm-114.222656 61.6875c0-13.335937 9.171875-26.457031 21.835938-31.265625l55.34375-18.226562 23.007812 34.910156-10.65625 19.679687c-1.871094 3.449219-1.546875 7.671876.820312 10.796876l47.210938 62.347656h-137.5625zm328 78.246094h-137.5625l42.289062-55.851562c-.941406 1.980468-1.234374 4.273437-.71875 6.53125 1.046876 4.542968 5.085938 7.761718 9.746094 7.761718h1.367188v12.855469c-4.023438 1.292969-6.9375 5.0625-6.9375 9.519531 0 5.523438 4.476562 10 10 10h62.878906c5.523438 0 10-4.476562 10-10 0-4.4375-2.886719-8.191406-6.882812-9.5v-12.875h1.363281c4.660156 0 8.703125-3.21875 9.746093-7.761718 1.042969-4.539063-1.1875-9.199219-5.378906-11.234376l-35.894531-17.417968c-2.757813-1.339844-5.976563-1.339844-8.730469 0l-35.898437 17.417968c-.816407.398438-1.558594.898438-2.21875 1.476563l2.476562-3.269531c2.367188-3.128906 2.6875-7.351563.820313-10.800782l-10.660156-19.679687 23.007812-34.902344 55.347656 18.21875c12.664063 4.8125 21.835938 17.929688 21.835938 31.265625v78.246094zm-35.820312-29.1875h-4.527344v-12.371094h4.527344zm-24.527344 0h-4.53125v-12.371094h4.53125zm0 0"/></svg>